<svg width="657" height="211" viewBox="0 0 657 211" fill="none" xmlns="http://www.w3.org/2000/svg">
    <g clip-path="url(#clip0)">
        <path d="M101.656 10.7168C107.19 10.7168 112.48 11.2458 117.525 12.3037C122.652 13.2803 127.413 14.623 131.808 16.332C136.202 17.9596 140.19 19.8314 143.771 21.9473C147.351 24.0632 150.403 26.179 152.926 28.2949L184.664 6.44434L148.165 76.5127L145.357 39.7695C142.997 38.1419 140.434 36.7178 137.667 35.4971C134.981 34.195 132.255 33.137 129.488 32.3232C126.803 31.4281 124.199 30.7363 121.676 30.248C119.153 29.6784 116.915 29.2308 114.962 28.9053C113.009 28.5798 111.422 28.3763 110.201 28.2949C109.062 28.1322 108.451 28.0508 108.37 28.0508C102.836 28.0508 98.1976 28.6611 94.4541 29.8818C90.7106 31.1025 87.6589 32.6895 85.2988 34.6426C83.0202 36.5957 81.3519 38.8337 80.2939 41.3564C79.3174 43.7979 78.8291 46.2799 78.8291 48.8027C78.8291 53.9297 79.887 58.2835 82.0029 61.8643C84.1188 65.3636 87.3333 68.4967 91.6465 71.2637C95.9596 74.0306 101.453 76.6348 108.126 79.0762C114.799 81.4362 122.652 83.9997 131.686 86.7666C137.138 88.4756 142.265 90.7949 147.066 93.7246C151.949 96.5729 156.181 99.9502 159.762 103.856C163.342 107.681 166.15 111.994 168.185 116.796C170.3 121.516 171.358 126.602 171.358 132.055C171.358 138.402 170.463 144.058 168.673 149.022C166.882 153.905 164.482 158.218 161.471 161.962C158.541 165.624 155.123 168.757 151.217 171.361C147.311 173.884 143.242 175.919 139.01 177.465C134.859 179.092 130.628 180.232 126.314 180.883C122.083 181.615 118.095 181.981 114.352 181.981C103.365 181.981 93.3962 180.11 84.4443 176.366C75.4925 172.623 67.151 167.496 59.4199 160.985L27.6816 182.714L63.082 119.97C64.0586 125.829 65.7676 131.485 68.209 136.938C70.7318 142.309 73.8242 147.11 77.4863 151.342C81.1484 155.574 85.3802 158.951 90.1816 161.474C94.9831 163.996 100.232 165.258 105.929 165.258C110.486 165.258 114.636 164.566 118.38 163.183C122.205 161.799 125.46 159.968 128.146 157.689C130.831 155.329 132.906 152.644 134.371 149.633C135.917 146.54 136.69 143.326 136.69 139.989C136.69 135.351 135.388 131.363 132.784 128.026C130.18 124.608 126.762 121.597 122.53 118.993C118.299 116.308 113.456 113.866 108.004 111.669C102.633 109.39 97.099 107.071 91.4023 104.711C85.7057 102.351 80.1312 99.7467 74.6787 96.8984C69.3076 94.0501 64.5062 90.7135 60.2744 86.8887C56.0426 82.9824 52.6247 78.4251 50.0205 73.2168C47.4163 68.0085 46.1143 61.8643 46.1143 54.7842C46.1143 49.3317 47.1722 44.0013 49.2881 38.793C51.4854 33.5033 54.8219 28.7832 59.2979 24.6328C63.8551 20.4824 69.6331 17.1458 76.6318 14.623C83.6305 12.0189 91.972 10.7168 101.656 10.7168ZM305.88 67.4795L280.611 76.2686L228.609 125.707C231.865 129.695 234.998 133.113 238.009 135.961C241.02 138.809 243.868 141.251 246.554 143.285C249.239 145.32 251.721 146.947 254 148.168C256.36 149.389 258.517 150.325 260.47 150.976C264.946 152.522 269.015 153.01 272.677 152.44C275.281 152.278 278.089 151.464 281.1 149.999C283.704 148.778 286.674 146.825 290.011 144.14C293.429 141.454 297.05 137.589 300.875 132.543C299.41 141.576 297.254 149.104 294.405 155.126C291.638 161.067 288.709 165.827 285.616 169.408C282.524 172.908 279.553 175.39 276.705 176.854C273.938 178.319 271.822 179.052 270.357 179.052C266.126 178.401 261.446 176.488 256.319 173.314C254.122 172.012 251.681 170.344 248.995 168.31C246.391 166.275 243.583 163.834 240.572 160.985C237.643 158.137 234.509 154.8 231.173 150.976C227.836 147.069 224.418 142.593 220.919 137.548L221.163 160.985L237.398 174.535H176.363L195.162 159.276L203.829 23.29L176.607 9.74023L219.82 2.53809L220.675 113.012L254.854 69.3105L240.816 53.8076L305.88 67.4795ZM304.537 177.221L323.702 162.206L319.552 77.9775L296.969 63.207L349.459 54.2959L340.06 152.196L366.305 168.554L304.537 177.221ZM350.802 24.7549C350.802 27.1963 350.313 29.5156 349.337 31.7129C348.36 33.8288 347.018 35.7412 345.309 37.4502C343.6 39.0778 341.646 40.3799 339.449 41.3564C337.252 42.2516 334.933 42.6992 332.491 42.6992C329.887 42.6992 327.446 42.2516 325.167 41.3564C322.97 40.3799 321.057 39.0778 319.43 37.4502C317.802 35.7412 316.5 33.8288 315.523 31.7129C314.547 29.5156 314.059 27.1963 314.059 24.7549C314.059 22.2321 314.547 19.9128 315.523 17.7969C316.5 15.5996 317.802 13.6872 319.43 12.0596C321.057 10.432 322.97 9.17057 325.167 8.27539C327.446 7.29883 329.887 6.81055 332.491 6.81055C334.933 6.81055 337.252 7.29883 339.449 8.27539C341.646 9.17057 343.6 10.432 345.309 12.0596C347.018 13.6872 348.36 15.5996 349.337 17.7969C350.313 19.9128 350.802 22.2321 350.802 24.7549ZM398.043 160.741L422.457 170.507L361.3 176.488L383.272 159.276L379.488 27.4404L351.29 15.2334L413.058 7.05469L398.043 160.741ZM457.613 160.741L482.027 170.507L420.87 176.488L442.843 159.276L439.059 27.4404L410.86 15.2334L472.628 7.05469L457.613 160.741ZM536.593 51.7324C539.685 51.7324 542.818 52.0173 545.992 52.5869C549.166 53.0752 552.258 53.8483 555.27 54.9062C558.362 55.8828 561.251 57.1035 563.937 58.5684C566.703 59.9518 569.186 61.498 571.383 63.207L591.402 38.5488L582.369 99.4619C581.393 95.2301 579.684 91.0798 577.242 87.0107C574.801 82.8604 571.749 79.1576 568.087 75.9023C564.506 72.6471 560.356 70.043 555.636 68.0898C550.916 66.0553 545.748 65.0381 540.133 65.0381C537.04 65.0381 534.07 65.4043 531.222 66.1367C528.373 66.7878 525.851 67.8864 523.653 69.4326C521.537 70.9788 519.828 72.932 518.526 75.292C517.306 77.652 516.695 80.4596 516.695 83.7148C516.695 87.6211 517.753 90.7949 519.869 93.2363C522.066 95.6777 524.915 97.7529 528.414 99.4619C531.913 101.09 535.901 102.514 540.377 103.734C544.853 104.874 549.451 106.094 554.171 107.396C558.891 108.699 563.489 110.245 567.965 112.035C572.441 113.744 576.428 115.982 579.928 118.749C583.427 121.516 586.235 124.975 588.351 129.125C590.548 133.194 591.646 138.24 591.646 144.262C591.646 151.016 590.304 156.794 587.618 161.596C585.014 166.316 581.637 170.222 577.486 173.314C573.336 176.326 568.738 178.523 563.692 179.906C558.647 181.29 553.723 181.981 548.922 181.981C545.016 181.981 541.109 181.575 537.203 180.761C533.297 179.947 529.513 178.808 525.851 177.343C522.188 175.878 518.689 174.128 515.353 172.094C512.097 170.059 509.127 167.862 506.441 165.502L487.887 190.282L493.624 129.735C496.228 135.269 499.361 140.437 503.023 145.238C506.686 150.04 510.755 154.231 515.23 157.812C519.706 161.311 524.508 164.078 529.635 166.112C534.762 168.065 540.092 169.042 545.626 169.042C552.055 169.042 557.182 167.699 561.007 165.014C564.913 162.247 566.866 158.34 566.866 153.295C566.866 150.04 565.768 147.354 563.57 145.238C561.454 143.041 558.606 141.129 555.025 139.501C551.526 137.873 547.538 136.409 543.062 135.106C538.587 133.804 533.989 132.38 529.269 130.834C524.549 129.288 519.951 127.497 515.475 125.463C510.999 123.347 506.97 120.743 503.39 117.65C499.89 114.477 497.042 110.652 494.845 106.176C492.729 101.618 491.671 96.1253 491.671 89.6963C491.671 84.1624 492.485 79.361 494.112 75.292C495.74 71.223 497.856 67.805 500.46 65.0381C503.146 62.1898 506.116 59.9111 509.371 58.2021C512.708 56.4118 516.044 55.069 519.381 54.1738C522.717 53.1973 525.891 52.5462 528.902 52.2207C531.913 51.8952 534.477 51.7324 536.593 51.7324Z" fill="white"/>
        <path d="M117.525 12.3037L117.32 13.2824L117.329 13.2843L117.338 13.286L117.525 12.3037ZM131.808 16.332L131.445 17.264L131.453 17.267L131.46 17.2698L131.808 16.332ZM152.926 28.2949L152.283 29.0611L152.866 29.5501L153.493 29.1186L152.926 28.2949ZM184.664 6.44434L185.551 6.90632L184.097 5.62066L184.664 6.44434ZM148.165 76.5127L147.168 76.5889L147.435 80.0794L149.052 76.9747L148.165 76.5127ZM145.357 39.7695L146.355 39.6933L146.318 39.2173L145.925 38.9463L145.357 39.7695ZM137.667 35.4971L137.231 36.3969L137.247 36.4047L137.263 36.412L137.667 35.4971ZM129.488 32.3232L129.172 33.2719L129.189 33.2776L129.206 33.2826L129.488 32.3232ZM121.676 30.248L121.456 31.2235L121.471 31.2269L121.486 31.2298L121.676 30.248ZM110.201 28.2949L110.06 29.2849L110.097 29.2902L110.135 29.2927L110.201 28.2949ZM85.2988 34.6426L84.6613 33.8722L84.6546 33.8777L84.648 33.8833L85.2988 34.6426ZM80.2939 41.3564L79.3718 40.9697L79.3685 40.9774L79.3655 40.9851L80.2939 41.3564ZM82.0029 61.8643L81.142 62.373L81.1472 62.3817L82.0029 61.8643ZM108.126 79.0762L107.782 80.0153L107.793 80.0189L108.126 79.0762ZM131.686 86.7666L131.985 85.8124L131.978 85.8105L131.686 86.7666ZM147.066 93.7246L146.546 94.5782L146.554 94.5834L146.563 94.5884L147.066 93.7246ZM159.762 103.856L159.025 104.532L159.032 104.54L159.762 103.856ZM168.185 116.796L167.264 117.186L167.268 117.196L167.272 117.205L168.185 116.796ZM168.673 149.022L169.612 149.367L169.614 149.362L168.673 149.022ZM161.471 161.962L160.691 161.335L160.69 161.337L161.471 161.962ZM151.217 171.361L151.759 172.201L151.765 172.197L151.771 172.193L151.217 171.361ZM139.01 177.465L138.667 176.526L138.656 176.53L138.645 176.534L139.01 177.465ZM126.314 180.883L126.165 179.894L126.155 179.896L126.144 179.897L126.314 180.883ZM59.4199 160.985L60.0641 160.22L59.4824 159.731L58.855 160.16L59.4199 160.985ZM27.6816 182.714L26.8107 182.222L28.2466 183.539L27.6816 182.714ZM63.082 119.97L64.0684 119.805L63.6028 117.012L62.2111 119.478L63.082 119.97ZM68.209 136.938L67.2963 137.346L67.3 137.354L67.3039 137.363L68.209 136.938ZM118.38 163.183L118.04 162.242L118.033 162.245L118.38 163.183ZM128.146 157.689L128.792 158.452L128.799 158.446L128.806 158.441L128.146 157.689ZM134.371 149.633L133.477 149.186L133.472 149.195L134.371 149.633ZM132.784 128.026L131.989 128.632L131.996 128.642L132.784 128.026ZM122.53 118.993L121.994 119.838L122.006 119.845L122.53 118.993ZM108.004 111.669L107.613 112.59L107.622 112.593L107.63 112.596L108.004 111.669ZM74.6787 96.8984L74.2102 97.7819L74.2157 97.7848L74.6787 96.8984ZM60.2744 86.8887L59.5961 87.6235L59.6039 87.6305L60.2744 86.8887ZM50.0205 73.2168L49.1261 73.664L50.0205 73.2168ZM49.2881 38.793L48.3646 38.4094L48.3616 38.4166L49.2881 38.793ZM59.2979 24.6328L58.6245 23.8934L58.6179 23.8995L59.2979 24.6328ZM76.6318 14.623L76.971 15.5638L76.9806 15.5603L76.6318 14.623ZM101.656 11.7168C107.126 11.7168 112.347 12.2396 117.32 13.2824L117.731 11.325C112.613 10.2519 107.254 9.7168 101.656 9.7168V11.7168ZM117.338 13.286C122.412 14.2524 127.113 15.5793 131.445 17.264L132.17 15.4C127.713 13.6668 122.893 12.3081 117.713 11.3214L117.338 13.286ZM131.46 17.2698C135.806 18.8792 139.738 20.7262 143.262 22.8082L144.279 21.0863C140.641 18.9365 136.599 17.0401 132.155 15.3943L131.46 17.2698ZM143.262 22.8082C146.807 24.9031 149.812 26.9882 152.283 29.0611L153.568 27.5287C150.994 25.3699 147.895 23.2232 144.279 21.0863L143.262 22.8082ZM153.493 29.1186L185.231 7.26801L184.097 5.62066L152.359 27.4712L153.493 29.1186ZM183.777 5.98235L147.278 76.0507L149.052 76.9747L185.551 6.90632L183.777 5.98235ZM149.162 76.4365L146.355 39.6933L144.36 39.8457L147.168 76.5889L149.162 76.4365ZM145.925 38.9463C143.511 37.2812 140.892 35.8268 138.071 34.5822L137.263 36.412C139.976 37.6087 142.484 39.0027 144.79 40.5927L145.925 38.9463ZM138.103 34.5973C135.37 33.2719 132.592 32.1938 129.77 31.3639L129.206 33.2826C131.918 34.0803 134.593 35.118 137.231 36.3969L138.103 34.5973ZM129.805 31.3746C127.082 30.467 124.435 29.7636 121.866 29.2663L121.486 31.2298C123.962 31.7091 126.524 32.3891 129.172 33.2719L129.805 31.3746ZM121.896 29.2726C119.36 28.6999 117.103 28.2483 115.126 27.9189L114.798 29.8917C116.727 30.2133 118.946 30.6568 121.456 31.2235L121.896 29.2726ZM115.126 27.9189C113.158 27.5908 111.535 27.3816 110.268 27.2971L110.135 29.2927C111.309 29.371 112.86 29.5687 114.798 29.8917L115.126 27.9189ZM110.343 27.305C109.772 27.2235 109.331 27.1619 109.021 27.1206C108.867 27.1 108.741 27.084 108.647 27.0729C108.585 27.0656 108.463 27.0508 108.37 27.0508V29.0508C108.318 29.0508 108.303 29.0461 108.413 29.0592C108.492 29.0685 108.606 29.0829 108.757 29.103C109.057 29.1431 109.491 29.2036 110.06 29.2849L110.343 27.305ZM108.37 27.0508C102.77 27.0508 98.0191 27.6675 94.1441 28.9311L94.7641 30.8326C98.376 29.6548 102.902 29.0508 108.37 29.0508V27.0508ZM94.1441 28.9311C90.3136 30.1802 87.1414 31.8196 84.6613 33.8722L85.9364 35.413C88.1763 33.5593 91.1076 32.0249 94.7641 30.8326L94.1441 28.9311ZM84.648 33.8833C82.2628 35.9278 80.4956 38.2898 79.3718 40.9697L81.2161 41.7432C82.2082 39.3775 83.7775 37.2636 85.9496 35.4018L84.648 33.8833ZM79.3655 40.9851C78.3437 43.5395 77.8291 46.1474 77.8291 48.8027H79.8291C79.8291 46.4125 80.2911 44.0562 81.2224 41.7278L79.3655 40.9851ZM77.8291 48.8027C77.8291 54.0672 78.9161 58.6061 81.142 62.373L82.8639 61.3555C80.858 57.961 79.8291 53.7921 79.8291 48.8027H77.8291ZM81.1472 62.3817C83.3596 66.0407 86.6965 69.2763 91.1065 72.1054L92.1864 70.422C87.9702 67.7172 84.878 64.6865 82.8587 61.3468L81.1472 62.3817ZM91.1065 72.1054C95.4999 74.9238 101.065 77.5576 107.782 80.0153L108.47 78.137C101.841 75.7119 96.4194 73.1374 92.1864 70.422L91.1065 72.1054ZM107.793 80.0189C114.483 82.385 122.35 84.9529 131.393 87.7228L131.978 85.8105C122.955 83.0464 115.116 80.4874 108.459 78.1334L107.793 80.0189ZM131.386 87.7208C136.762 89.4058 141.815 91.6917 146.546 94.5782L147.587 92.871C142.715 89.8982 137.514 87.5453 131.985 85.8124L131.386 87.7208ZM146.563 94.5884C151.364 97.3895 155.516 100.705 159.025 104.532L160.499 103.181C156.846 99.1956 152.534 95.7564 147.57 92.8608L146.563 94.5884ZM159.032 104.54C162.532 108.279 165.275 112.493 167.264 117.186L169.105 116.406C167.025 111.496 164.152 107.083 160.492 103.173L159.032 104.54ZM167.272 117.205C169.327 121.789 170.358 126.735 170.358 132.055H172.358C172.358 126.469 171.274 121.242 169.097 116.387L167.272 117.205ZM170.358 132.055C170.358 138.309 169.476 143.847 167.732 148.683L169.614 149.362C171.45 144.269 172.358 138.495 172.358 132.055H170.358ZM167.734 148.678C165.978 153.467 163.629 157.683 160.691 161.335L162.25 162.589C165.335 158.754 167.787 154.343 169.612 149.367L167.734 148.678ZM160.69 161.337C157.824 164.919 154.483 167.982 150.662 170.529L151.771 172.193C155.763 169.532 159.258 166.329 162.252 162.587L160.69 161.337ZM150.674 170.521C146.829 173.005 142.826 175.006 138.667 176.526L139.353 178.404C143.657 176.832 147.793 174.763 151.759 172.201L150.674 170.521ZM138.645 176.534C134.562 178.135 130.403 179.254 126.165 179.894L126.464 181.872C130.852 181.209 135.156 180.05 139.375 178.396L138.645 176.534ZM126.144 179.897C121.96 180.622 118.03 180.981 114.352 180.981V182.981C118.16 182.981 122.205 182.609 126.485 181.868L126.144 179.897ZM114.352 180.981C103.48 180.981 93.6446 179.13 84.8301 175.444L84.0585 177.289C93.1477 181.09 103.25 182.981 114.352 182.981V180.981ZM84.8301 175.444C75.9758 171.741 67.7208 166.668 60.0641 160.22L58.7758 161.75C66.5813 168.323 75.0092 173.505 84.0585 177.289L84.8301 175.444ZM58.855 160.16L27.1167 181.889L28.2466 183.539L59.9848 161.811L58.855 160.16ZM28.5526 183.205L63.953 120.461L62.2111 119.478L26.8107 182.222L28.5526 183.205ZM62.0956 120.134C63.0863 126.078 64.8202 131.816 67.2963 137.346L69.1217 136.529C66.715 131.154 65.0309 125.58 64.0684 119.805L62.0956 120.134ZM67.3039 137.363C69.8632 142.812 73.0046 147.691 76.7302 151.996L78.2425 150.687C74.6438 146.529 71.6003 141.806 69.1141 136.512L67.3039 137.363ZM76.7302 151.996C80.4714 156.319 84.801 159.776 89.7165 162.359L90.6468 160.588C85.9594 158.126 81.8255 154.828 78.2425 150.687L76.7302 151.996ZM89.7165 162.359C94.6687 164.961 100.078 166.258 105.929 166.258V164.258C100.386 164.258 95.2975 163.032 90.6468 160.588L89.7165 162.359ZM105.929 166.258C110.588 166.258 114.858 165.55 118.727 164.121L118.033 162.245C114.415 163.582 110.384 164.258 105.929 164.258V166.258ZM118.72 164.123C122.64 162.705 126.003 160.819 128.792 158.452L127.499 156.927C124.917 159.118 121.77 160.893 118.04 162.242L118.72 164.123ZM128.806 158.441C131.584 155.999 133.744 153.209 135.27 150.07L133.472 149.195C132.069 152.079 130.078 154.66 127.485 156.938L128.806 158.441ZM135.266 150.08C136.879 146.854 137.69 143.487 137.69 139.989H135.69C135.69 143.165 134.956 146.227 133.477 149.186L135.266 150.08ZM137.69 139.989C137.69 135.15 136.327 130.941 133.572 127.411L131.996 128.642C134.45 131.785 135.69 135.551 135.69 139.989H137.69ZM133.58 127.42C130.89 123.89 127.375 120.8 123.054 118.142L122.006 119.845C126.149 122.394 129.47 125.326 131.989 128.632L133.58 127.42ZM123.066 118.149C118.775 115.426 113.877 112.958 108.378 110.741L107.63 112.596C113.036 114.775 117.822 117.19 121.994 119.837L123.066 118.149ZM108.394 110.748C103.021 108.469 97.4842 106.148 91.7851 103.787L91.0196 105.635C96.7138 107.994 102.245 110.312 107.613 112.59L108.394 110.748ZM91.7851 103.787C86.1157 101.438 80.5679 98.8467 75.1417 96.0121L74.2157 97.7848C79.6944 100.647 85.2958 103.263 91.0196 105.635L91.7851 103.787ZM75.1472 96.015C69.8443 93.2028 65.1116 89.9128 60.945 86.1468L59.6039 87.6305C63.9008 91.5143 68.771 94.8974 74.2102 97.7819L75.1472 96.015ZM60.9527 86.1539C56.8108 82.3306 53.4656 77.871 50.9149 72.7696L49.1261 73.664C51.7837 78.9793 55.2745 83.6343 59.5961 87.6235L60.9527 86.1539ZM50.9149 72.7696C48.3936 67.7269 47.1143 61.742 47.1143 54.7842H45.1143C45.1143 61.9865 46.4391 68.29 49.1261 73.664L50.9149 72.7696ZM47.1143 54.7842C47.1143 49.4648 48.1457 44.2619 50.2146 39.1693L48.3616 38.4166C46.1987 43.7407 45.1143 49.1987 45.1143 54.7842H47.1143ZM50.2116 39.1766C52.3502 34.0282 55.6002 29.4253 59.9778 25.3661L58.6179 23.8995C54.0437 28.1411 50.6205 32.9784 48.3646 38.4094L50.2116 39.1766ZM59.9712 25.3722C64.4135 21.3265 70.0708 18.051 76.9709 15.5638L76.2927 13.6823C69.1954 16.2406 63.2968 19.6384 58.6245 23.8935L59.9712 25.3722ZM76.9806 15.5603C83.8401 13.0079 92.0575 11.7168 101.656 11.7168V9.7168C91.8865 9.7168 83.421 11.0299 76.2831 13.6858L76.9806 15.5603ZM305.88 67.4795L306.208 68.424L309.609 67.2412L306.086 66.5009L305.88 67.4795ZM280.611 76.2686L280.283 75.3241L280.079 75.395L279.922 75.5438L280.611 76.2686ZM228.609 125.707L227.92 124.982L227.248 125.621L227.835 126.339L228.609 125.707ZM246.554 143.285L245.95 144.082L246.554 143.285ZM254 148.168L253.528 149.049L253.534 149.053L253.541 149.056L254 148.168ZM260.47 150.976L260.796 150.03L260.786 150.027L260.47 150.976ZM272.677 152.44L272.614 151.442L272.568 151.445L272.523 151.452L272.677 152.44ZM281.1 149.999L280.675 149.094L280.669 149.097L280.662 149.1L281.1 149.999ZM290.011 144.14L289.393 143.353L289.384 143.361L290.011 144.14ZM300.875 132.543L301.862 132.703L300.078 131.939L300.875 132.543ZM294.405 155.126L293.501 154.698L293.499 154.704L294.405 155.126ZM285.616 169.408L286.366 170.07L286.373 170.062L285.616 169.408ZM276.705 176.854L276.248 175.965L276.237 175.971L276.705 176.854ZM270.357 179.052L270.205 180.04L270.281 180.052H270.357V179.052ZM256.319 173.314L256.846 172.464L256.837 172.459L256.829 172.454L256.319 173.314ZM248.995 168.31L248.379 169.098L248.385 169.102L248.391 169.107L248.995 168.31ZM240.572 160.985L239.875 161.702L239.885 161.712L240.572 160.985ZM231.173 150.976L230.412 151.625L230.419 151.633L231.173 150.976ZM220.919 137.548L221.741 136.978L219.885 134.302L219.919 137.558L220.919 137.548ZM221.163 160.985L220.163 160.996L220.168 161.457L220.522 161.753L221.163 160.985ZM237.398 174.535V175.535H240.157L238.039 173.767L237.398 174.535ZM176.363 174.535L175.733 173.759L173.545 175.535H176.363V174.535ZM195.162 159.276L195.792 160.053L196.132 159.777L196.16 159.34L195.162 159.276ZM203.829 23.29L204.827 23.3536L204.869 22.6908L204.275 22.3948L203.829 23.29ZM176.607 9.74023L176.443 8.75384L173.4 9.26094L176.162 10.6355L176.607 9.74023ZM219.82 2.53809L220.82 2.53035L220.811 1.35914L219.656 1.55169L219.82 2.53809ZM220.675 113.012L219.675 113.019L219.697 115.885L221.462 113.628L220.675 113.012ZM254.854 69.3105L255.642 69.9266L256.161 69.2634L255.596 68.6393L254.854 69.3105ZM240.816 53.8076L241.022 52.829L238.008 52.1956L240.075 54.4788L240.816 53.8076ZM305.551 66.535L280.283 75.3241L280.94 77.2131L306.208 68.424L305.551 66.535ZM279.922 75.5438L227.92 124.982L229.298 126.432L281.3 76.9933L279.922 75.5438ZM227.835 126.339C231.111 130.353 234.273 133.804 237.322 136.687L238.696 135.234C235.722 132.422 232.618 129.037 229.384 125.075L227.835 126.339ZM237.322 136.687C240.353 139.555 243.23 142.021 245.95 144.082L247.158 142.488C244.507 140.48 241.686 138.063 238.696 135.234L237.322 136.687ZM245.95 144.082C248.665 146.139 251.192 147.798 253.528 149.049L254.472 147.286C252.251 146.097 249.813 144.5 247.158 142.488L245.95 144.082ZM253.541 149.056C255.934 150.294 258.139 151.253 260.153 151.924L260.786 150.027C258.894 149.396 256.786 148.483 254.459 147.28L253.541 149.056ZM260.143 151.921C264.732 153.506 268.969 154.029 272.83 153.429L272.523 151.452C269.061 151.991 265.16 151.538 260.796 150.03L260.143 151.921ZM272.739 153.438C275.505 153.266 278.44 152.405 281.537 150.898L280.662 149.1C277.737 150.523 275.057 151.29 272.614 151.442L272.739 153.438ZM281.524 150.904C284.226 149.638 287.266 147.632 290.638 144.919L289.384 143.361C286.082 146.018 283.181 147.919 280.675 149.094L281.524 150.904ZM290.629 144.926C294.137 142.17 297.817 138.233 301.672 133.147L300.078 131.939C296.284 136.944 292.721 140.739 289.393 143.353L290.629 144.926ZM299.888 132.383C298.433 141.355 296.298 148.786 293.501 154.698L295.309 155.554C298.209 149.422 300.387 141.797 301.862 132.703L299.888 132.383ZM293.499 154.704C290.757 160.59 287.873 165.265 284.859 168.755L286.373 170.062C289.544 166.39 292.52 161.543 295.312 155.548L293.499 154.704ZM284.867 168.746C281.822 172.191 278.947 174.577 276.248 175.965L277.162 177.744C280.16 176.202 283.225 173.624 286.366 170.07L284.867 168.746ZM276.237 175.971C273.486 177.427 271.558 178.052 270.357 178.052V180.052C272.086 180.052 274.39 179.211 277.173 177.738L276.237 175.971ZM270.509 178.063C266.453 177.439 261.902 175.594 256.846 172.464L255.793 174.165C260.991 177.382 265.798 179.362 270.205 180.04L270.509 178.063ZM256.829 172.454C254.673 171.176 252.263 169.531 249.599 167.512L248.391 169.107C251.098 171.157 253.571 172.848 255.81 174.175L256.829 172.454ZM249.611 167.522C247.037 165.511 244.253 163.091 241.259 160.259L239.885 161.712C242.914 164.577 245.745 167.04 248.379 169.098L249.611 167.522ZM241.269 160.268C238.363 157.443 235.249 154.127 231.926 150.318L230.419 151.633C233.77 155.474 236.922 158.831 239.875 161.702L241.269 160.268ZM231.933 150.326C228.622 146.45 225.224 142.001 221.741 136.978L220.097 138.118C223.612 143.186 227.05 147.689 230.412 151.625L231.933 150.326ZM219.919 137.558L220.163 160.996L222.163 160.975L221.919 137.537L219.919 137.558ZM220.522 161.753L236.758 175.303L238.039 173.767L221.804 160.218L220.522 161.753ZM237.398 173.535H176.363V175.535H237.398V173.535ZM176.993 175.312L195.792 160.053L194.532 158.5L175.733 173.759L176.993 175.312ZM196.16 159.34L204.827 23.3536L202.831 23.2264L194.164 159.213L196.16 159.34ZM204.275 22.3948L177.053 8.84501L176.162 10.6355L203.383 24.1853L204.275 22.3948ZM176.772 10.7266L219.985 3.52448L219.656 1.55169L176.443 8.75384L176.772 10.7266ZM218.82 2.54582L219.675 113.019L221.675 113.004L220.82 2.53035L218.82 2.54582ZM221.462 113.628L255.642 69.9266L254.067 68.6945L219.887 112.396L221.462 113.628ZM255.596 68.6393L241.558 53.1364L240.075 54.4788L254.113 69.9818L255.596 68.6393ZM240.611 54.7862L305.674 68.4581L306.086 66.5009L241.022 52.829L240.611 54.7862ZM304.537 177.221L303.92 176.434L300.992 178.728L304.676 178.211L304.537 177.221ZM323.702 162.206L324.319 162.993L324.726 162.674L324.701 162.157L323.702 162.206ZM319.552 77.9775L320.551 77.9283L320.525 77.4195L320.099 77.1406L319.552 77.9775ZM296.969 63.207L296.801 62.2211L294.287 62.648L296.421 64.0439L296.969 63.207ZM349.459 54.2959L350.454 54.3915L350.579 53.0914L349.292 53.31L349.459 54.2959ZM340.06 152.196L339.064 152.101L339.005 152.717L339.531 153.045L340.06 152.196ZM366.305 168.554L366.444 169.544L369.17 169.161L366.834 167.705L366.305 168.554ZM349.337 31.7129L350.245 32.1319L350.248 32.1255L350.251 32.119L349.337 31.7129ZM345.309 37.4502L345.998 38.1743L346.007 38.1659L346.016 38.1573L345.309 37.4502ZM339.449 41.3564L339.827 42.2825L339.841 42.2766L339.855 42.2703L339.449 41.3564ZM325.167 41.3564L324.761 42.2703L324.781 42.2792L324.801 42.2872L325.167 41.3564ZM319.43 37.4502L318.706 38.1399L318.714 38.1487L318.723 38.1573L319.43 37.4502ZM315.523 31.7129L314.61 32.119L314.613 32.1255L314.615 32.1319L315.523 31.7129ZM315.523 17.7969L316.431 18.2159L316.434 18.2095L316.437 18.203L315.523 17.7969ZM325.167 8.27539L325.544 9.20148L325.553 9.19808L325.561 9.19454L325.167 8.27539ZM339.449 8.27539L339.043 9.1892L339.057 9.19557L339.072 9.20148L339.449 8.27539ZM349.337 17.7969L348.423 18.203L348.426 18.2095L348.429 18.2159L349.337 17.7969ZM305.154 178.008L324.319 162.993L323.085 161.419L303.92 176.434L305.154 178.008ZM324.701 162.157L320.551 77.9283L318.553 78.0268L322.703 162.255L324.701 162.157ZM320.099 77.1406L297.516 62.3701L296.421 64.0439L319.004 78.8144L320.099 77.1406ZM297.136 64.1929L349.626 55.2818L349.292 53.31L296.801 62.2211L297.136 64.1929ZM348.464 54.2003L339.064 152.101L341.055 152.292L350.454 54.3915L348.464 54.2003ZM339.531 153.045L365.776 169.402L366.834 167.705L340.589 151.348L339.531 153.045ZM366.166 167.563L304.398 176.23L304.676 178.211L366.444 169.544L366.166 167.563ZM349.802 24.7549C349.802 27.0586 349.342 29.2394 348.423 31.3068L350.251 32.119C351.285 29.7919 351.802 27.334 351.802 24.7549H349.802ZM348.429 31.2938C347.504 33.2986 346.23 35.1144 344.601 36.7431L346.016 38.1573C347.805 36.368 349.217 34.3589 350.245 32.1319L348.429 31.2938ZM344.619 36.7261C342.994 38.2732 341.138 39.5117 339.043 40.4426L339.855 42.2703C342.155 41.2481 344.205 39.8824 345.998 38.1743L344.619 36.7261ZM339.072 40.4304C336.998 41.2753 334.807 41.6992 332.491 41.6992V43.6992C335.058 43.6992 337.506 43.228 339.827 42.2825L339.072 40.4304ZM332.491 41.6992C330.004 41.6992 327.688 41.2723 325.533 40.4257L324.801 42.2872C327.204 43.231 329.77 43.6992 332.491 43.6992V41.6992ZM325.573 40.4426C323.483 39.5137 321.674 38.2801 320.137 36.7431L318.723 38.1573C320.441 39.8755 322.457 41.2461 324.761 42.2703L325.573 40.4426ZM320.154 36.7605C318.601 35.13 317.361 33.3088 316.431 31.2938L314.615 32.1319C315.639 34.3488 317.003 36.3524 318.706 38.1399L320.154 36.7605ZM316.437 31.3068C315.518 29.2394 315.059 27.0586 315.059 24.7549H313.059C313.059 27.334 313.575 29.7919 314.61 32.119L316.437 31.3068ZM315.059 24.7549C315.059 22.3647 315.52 20.1899 316.431 18.2159L314.615 17.3778C313.573 19.6357 313.059 22.0995 313.059 24.7549H315.059ZM316.437 18.203C317.366 16.1128 318.6 14.3036 320.137 12.7667L318.723 11.3525C317.004 13.0707 315.634 15.0864 314.61 17.3907L316.437 18.203ZM320.137 12.7667C321.667 11.2362 323.467 10.048 325.544 9.20148L324.79 7.3493C322.473 8.29318 320.447 9.62769 318.723 11.3525L320.137 12.7667ZM325.561 9.19454C327.709 8.27399 330.016 7.81055 332.491 7.81055V5.81055C329.759 5.81055 327.182 6.32366 324.773 7.35625L325.561 9.19454ZM332.491 7.81055C334.795 7.81055 336.976 8.27036 339.043 9.1892L339.855 7.36158C337.528 6.3273 335.07 5.81055 332.491 5.81055V7.81055ZM339.072 9.20148C341.154 10.0497 343.001 11.2428 344.619 12.7837L345.998 11.3354C344.198 9.6211 342.139 8.29141 339.827 7.3493L339.072 9.20148ZM344.619 12.7837C346.231 14.3193 347.499 16.1231 348.423 18.203L350.251 17.3907C349.222 15.0761 347.804 13.0551 345.998 11.3354L344.619 12.7837ZM348.429 18.2159C349.34 20.1899 349.802 22.3647 349.802 24.7549H351.802C351.802 22.0995 351.287 19.6357 350.245 17.3778L348.429 18.2159ZM398.043 160.741L397.048 160.644L396.975 161.391L397.672 161.67L398.043 160.741ZM422.457 170.507L422.554 171.502L422.828 169.578L422.457 170.507ZM361.3 176.488L360.683 175.701L357.981 177.818L361.397 177.484L361.3 176.488ZM383.272 159.276L383.889 160.064L384.287 159.752L384.272 159.248L383.272 159.276ZM379.488 27.4404L380.488 27.4117L380.47 26.7756L379.886 26.5227L379.488 27.4404ZM351.29 15.2334L351.159 14.2421L347.578 14.7162L350.893 16.1511L351.29 15.2334ZM413.058 7.05469L414.053 7.15192L414.175 5.89795L412.926 6.06334L413.058 7.05469ZM397.672 161.67L422.086 171.435L422.828 169.578L398.414 159.813L397.672 161.67ZM422.36 169.512L361.202 175.493L361.397 177.484L422.554 171.502L422.36 169.512ZM361.916 177.276L383.889 160.064L382.656 158.489L360.683 175.701L361.916 177.276ZM384.272 159.248L380.488 27.4117L378.489 27.4691L382.273 159.305L384.272 159.248ZM379.886 26.5227L351.687 14.3157L350.893 16.1511L379.091 28.3581L379.886 26.5227ZM351.421 16.2247L413.189 8.04603L412.926 6.06334L351.159 14.2421L351.421 16.2247ZM412.062 6.95745L397.048 160.644L399.038 160.838L414.053 7.15192L412.062 6.95745ZM457.613 160.741L456.618 160.644L456.545 161.391L457.242 161.67L457.613 160.741ZM482.027 170.507L482.125 171.502L482.399 169.578L482.027 170.507ZM420.87 176.488L420.253 175.701L417.551 177.818L420.967 177.484L420.87 176.488ZM442.843 159.276L443.459 160.064L443.857 159.752L443.842 159.248L442.843 159.276ZM439.059 27.4404L440.058 27.4117L440.04 26.7756L439.456 26.5227L439.059 27.4404ZM410.86 15.2334L410.729 14.2421L407.148 14.7162L410.463 16.1511L410.86 15.2334ZM472.628 7.05469L473.623 7.15192L473.746 5.89795L472.497 6.06334L472.628 7.05469ZM457.242 161.67L481.656 171.435L482.399 169.578L457.985 159.813L457.242 161.67ZM481.93 169.512L420.773 175.493L420.967 177.484L482.125 171.502L481.93 169.512ZM421.487 177.276L443.459 160.064L442.226 158.489L420.253 175.701L421.487 177.276ZM443.842 159.248L440.058 27.4117L438.059 27.4691L441.843 159.305L443.842 159.248ZM439.456 26.5227L411.258 14.3157L410.463 16.1511L438.661 28.3581L439.456 26.5227ZM410.992 16.2247L472.759 8.04603L472.497 6.06334L410.729 14.2421L410.992 16.2247ZM471.633 6.95745L456.618 160.644L458.609 160.838L473.623 7.15192L471.633 6.95745ZM545.992 52.5869L545.816 53.5712L545.828 53.5734L545.84 53.5753L545.992 52.5869ZM555.27 54.9062L554.938 55.8497L554.953 55.855L554.968 55.8598L555.27 54.9062ZM563.937 58.5684L563.458 59.4463L563.473 59.4548L563.489 59.4628L563.937 58.5684ZM571.383 63.207L570.769 63.9964L571.542 64.5976L572.159 63.8373L571.383 63.207ZM591.402 38.5488L592.392 38.6955L592.927 35.0843L590.626 37.9185L591.402 38.5488ZM582.369 99.4619L581.395 99.6868L583.358 99.6086L582.369 99.4619ZM577.242 87.0107L576.38 87.5178L576.385 87.5252L577.242 87.0107ZM568.087 75.9023L567.414 76.6423L567.423 76.6498L568.087 75.9023ZM555.636 68.0898L555.24 69.0082L555.247 69.0111L555.253 69.0139L555.636 68.0898ZM531.222 66.1367L531.445 67.1116L531.458 67.1086L531.471 67.1052L531.222 66.1367ZM523.653 69.4326L523.078 68.6148L523.071 68.62L523.063 68.6252L523.653 69.4326ZM518.526 75.292L517.651 74.8089L517.644 74.8207L517.638 74.8326L518.526 75.292ZM519.869 93.2363L519.113 93.8913L519.12 93.8983L519.126 93.9053L519.869 93.2363ZM528.414 99.4619L527.975 100.36L527.984 100.365L527.992 100.369L528.414 99.4619ZM540.377 103.734L540.114 104.699L540.122 104.701L540.13 104.703L540.377 103.734ZM567.965 112.035L567.593 112.964L567.601 112.967L567.608 112.969L567.965 112.035ZM588.351 129.125L587.46 129.579L587.465 129.59L587.471 129.6L588.351 129.125ZM587.618 161.596L586.745 161.108L586.743 161.113L587.618 161.596ZM577.486 173.314L578.074 174.124L578.084 174.116L577.486 173.314ZM563.692 179.906L563.428 178.942L563.692 179.906ZM515.353 172.094L514.823 172.942L514.832 172.948L515.353 172.094ZM506.441 165.502L507.102 164.751L506.289 164.037L505.641 164.903L506.441 165.502ZM487.887 190.282L486.891 190.188L486.556 193.728L488.687 190.882L487.887 190.282ZM493.624 129.735L494.529 129.31L492.973 126.004L492.628 129.641L493.624 129.735ZM515.23 157.812L514.606 158.592L514.615 158.599L515.23 157.812ZM529.635 166.112L529.266 167.042L529.279 167.047L529.635 166.112ZM561.007 165.014L561.581 165.832L561.585 165.83L561.007 165.014ZM563.57 145.238L562.85 145.932L562.863 145.946L562.877 145.959L563.57 145.238ZM555.025 139.501L554.604 140.408L554.612 140.411L555.025 139.501ZM515.475 125.463L515.047 126.367L515.054 126.37L515.061 126.373L515.475 125.463ZM503.39 117.65L502.718 118.391L502.727 118.399L502.736 118.407L503.39 117.65ZM494.845 106.176L493.938 106.597L493.942 106.607L493.947 106.616L494.845 106.176ZM500.46 65.0381L499.732 64.3521L499.732 64.3527L500.46 65.0381ZM509.371 58.2021L509.836 59.0876L509.844 59.0833L509.371 58.2021ZM519.381 54.1738L519.64 55.1397L519.651 55.1367L519.662 55.1336L519.381 54.1738ZM536.593 52.7324C539.624 52.7324 542.698 53.0115 545.816 53.5712L546.169 51.6026C542.939 51.023 539.747 50.7324 536.593 50.7324V52.7324ZM545.84 53.5753C548.953 54.0542 551.986 54.8124 554.938 55.8497L555.601 53.9628C552.531 52.8842 549.379 52.0962 546.144 51.5985L545.84 53.5753ZM554.968 55.8598C558.003 56.8181 560.832 58.0141 563.458 59.4463L564.415 57.6905C561.67 56.1929 558.721 54.9475 555.571 53.9527L554.968 55.8598ZM563.489 59.4628C566.204 60.82 568.629 62.332 570.769 63.9964L571.997 62.4177C569.742 60.6641 567.203 59.0836 564.384 57.6739L563.489 59.4628ZM572.159 63.8373L592.179 39.1791L590.626 37.9185L570.606 62.5767L572.159 63.8373ZM590.413 38.4021L581.38 99.3152L583.358 99.6086L592.392 38.6955L590.413 38.4021ZM583.344 99.2371C582.341 94.8942 580.59 90.6468 578.1 86.4962L576.385 87.5252C578.777 91.5127 580.444 95.5661 581.395 99.6868L583.344 99.2371ZM578.104 86.5037C575.609 82.2618 572.49 78.4782 568.751 75.1549L567.423 76.6498C571.008 79.8369 573.993 83.4589 576.38 87.5178L578.104 86.5037ZM568.76 75.1624C565.089 71.8253 560.839 69.1606 556.018 67.1658L555.253 69.0139C559.873 70.9253 563.924 73.469 567.414 76.6423L568.76 75.1624ZM556.032 67.1715C551.175 65.0783 545.871 64.0381 540.133 64.0381V66.0381C545.625 66.0381 550.656 67.0324 555.24 69.0082L556.032 67.1715ZM540.133 64.0381C536.961 64.0381 533.906 64.4138 530.973 65.1682L531.471 67.1052C534.234 66.3948 537.12 66.0381 540.133 66.0381V64.0381ZM530.999 65.1619C528.035 65.8393 525.39 66.9875 523.078 68.6148L524.229 70.2504C526.311 68.7853 528.712 67.7362 531.445 67.1116L530.999 65.1619ZM523.063 68.6252C520.826 70.2599 519.021 72.325 517.651 74.8089L519.402 75.7751C520.636 73.5389 522.249 71.6977 524.243 70.24L523.063 68.6252ZM517.638 74.8326C516.329 77.3631 515.695 80.3352 515.695 83.7148H517.695C517.695 80.584 518.282 77.941 519.415 75.7514L517.638 74.8326ZM515.695 83.7148C515.695 87.8091 516.809 91.2319 519.113 93.8913L520.625 92.5814C518.698 90.358 517.695 87.4331 517.695 83.7148H515.695ZM519.126 93.9053C521.423 96.458 524.382 98.6055 527.975 100.36L528.853 98.5633C525.448 96.9004 522.71 94.8975 520.612 92.5674L519.126 93.9053ZM527.992 100.369C531.552 102.024 535.594 103.466 540.114 104.699L540.64 102.77C536.208 101.561 532.275 100.155 528.836 98.5552L527.992 100.369ZM540.13 104.703C544.599 105.841 549.191 107.06 553.905 108.36L554.437 106.432C549.711 105.129 545.106 103.906 540.624 102.765L540.13 104.703ZM553.905 108.36C558.59 109.653 563.153 111.187 567.593 112.964L568.336 111.107C563.825 109.302 559.192 107.744 554.437 106.432L553.905 108.36ZM567.608 112.969C571.996 114.645 575.894 116.834 579.307 119.533L580.548 117.965C576.963 115.13 572.885 112.843 568.322 111.101L567.608 112.969ZM579.307 119.533C582.689 122.207 585.406 125.551 587.46 129.579L589.241 128.671C587.063 124.398 584.165 120.825 580.548 117.965L579.307 119.533ZM587.471 129.6C589.569 133.486 590.646 138.357 590.646 144.262H592.646C592.646 138.122 591.527 132.902 589.23 128.65L587.471 129.6ZM590.646 144.262C590.646 150.884 589.331 156.486 586.745 161.108L588.491 162.084C591.277 157.103 592.646 151.149 592.646 144.262H590.646ZM586.743 161.113C584.204 165.713 580.92 169.509 576.889 172.513L578.084 174.116C582.353 170.935 585.824 166.918 588.494 162.079L586.743 161.113ZM576.899 172.505C572.848 175.444 568.36 177.59 563.428 178.942L563.957 180.871C569.116 179.456 573.824 177.207 578.074 174.124L576.899 172.505ZM563.428 178.942C558.461 180.304 553.626 180.981 548.922 180.981V182.981C553.82 182.981 558.833 182.276 563.957 180.871L563.428 178.942ZM548.922 180.981C545.086 180.981 541.248 180.582 537.407 179.782L536.999 181.74C540.971 182.567 544.946 182.981 548.922 182.981V180.981ZM537.407 179.782C533.557 178.98 529.829 177.857 526.222 176.414L525.479 178.271C529.196 179.758 533.036 180.914 536.999 181.74L537.407 179.782ZM526.222 176.414C522.611 174.97 519.162 173.245 515.873 171.24L514.832 172.948C518.217 175.011 521.766 176.786 525.479 178.271L526.222 176.414ZM515.883 171.246C512.67 169.238 509.744 167.073 507.102 164.751L505.781 166.253C508.51 168.651 511.525 170.881 514.823 172.942L515.883 171.246ZM505.641 164.903L487.086 189.683L488.687 190.882L507.242 166.101L505.641 164.903ZM488.882 190.377L494.62 129.83L492.628 129.641L486.891 190.188L488.882 190.377ZM492.719 130.161C495.353 135.758 498.523 140.986 502.228 145.845L503.819 144.632C500.2 139.887 497.103 134.78 494.529 129.31L492.719 130.161ZM502.228 145.845C505.937 150.708 510.063 154.958 514.606 158.592L515.855 157.031C511.446 153.504 507.434 149.372 503.819 144.632L502.228 145.845ZM514.615 158.599C519.163 162.156 524.048 164.971 529.266 167.042L530.004 165.183C524.968 163.185 520.249 160.466 515.846 157.024L514.615 158.599ZM529.279 167.047C534.52 169.044 539.972 170.042 545.626 170.042V168.042C540.213 168.042 535.003 167.087 529.991 165.178L529.279 167.047ZM545.626 170.042C552.185 170.042 557.536 168.673 561.581 165.832L560.432 164.195C556.828 166.726 551.925 168.042 545.626 168.042V170.042ZM561.585 165.83C565.772 162.864 567.866 158.644 567.866 153.295H565.866C565.866 158.037 564.054 161.63 560.429 164.198L561.585 165.83ZM567.866 153.295C567.866 149.788 566.671 146.836 564.264 144.518L562.877 145.959C564.864 147.872 565.866 150.291 565.866 153.295H567.866ZM564.291 144.545C562.066 142.234 559.103 140.256 555.439 138.591L554.612 140.411C558.109 142.001 560.843 143.848 562.85 145.932L564.291 144.545ZM555.447 138.594C551.893 136.941 547.857 135.46 543.342 134.146L542.783 136.067C547.22 137.357 551.159 138.805 554.604 140.408L555.447 138.594ZM543.342 134.146C538.877 132.847 534.29 131.427 529.58 129.884L528.957 131.784C533.687 133.334 538.296 134.761 542.783 136.067L543.342 134.146ZM529.58 129.884C524.894 128.349 520.331 126.572 515.888 124.553L515.061 126.373C519.57 128.423 524.203 130.227 528.957 131.784L529.58 129.884ZM515.902 124.559C511.504 122.48 507.552 119.924 504.043 116.894L502.736 118.407C506.388 121.561 510.493 124.214 515.047 126.367L515.902 124.559ZM504.061 116.91C500.661 113.825 497.887 110.104 495.742 105.735L493.947 106.616C496.197 111.199 499.12 115.128 502.718 118.391L504.061 116.91ZM495.752 105.755C493.712 101.361 492.671 96.0191 492.671 89.6963H490.671C490.671 96.2316 491.746 101.876 493.938 106.597L495.752 105.755ZM492.671 89.6963C492.671 84.2575 493.471 79.5877 495.041 75.6634L493.184 74.9206C491.498 79.1343 490.671 84.0673 490.671 89.6963H492.671ZM495.041 75.6634C496.629 71.693 498.682 68.3863 501.188 65.7235L499.732 64.3527C497.03 67.2237 494.851 70.7529 493.184 74.9206L495.041 75.6634ZM501.188 65.7241C503.802 62.9511 506.685 60.7418 509.836 59.0875L508.906 57.3168C505.547 59.0804 502.489 61.4285 499.732 64.3521L501.188 65.7241ZM509.844 59.0833C513.119 57.3258 516.384 56.0131 519.64 55.1397L519.122 53.208C515.704 54.1249 512.296 55.4977 508.898 57.321L509.844 59.0833ZM519.662 55.1336C522.95 54.1712 526.065 53.5332 529.01 53.2149L528.795 51.2265C525.717 51.5592 522.485 52.2233 519.1 53.2141L519.662 55.1336ZM529.01 53.2149C531.999 52.8918 534.524 52.7324 536.593 52.7324V50.7324C534.429 50.7324 531.828 50.8986 528.795 51.2265L529.01 53.2149Z" fill="#6C63FF"/>
    </g>
    <defs>
        <clipPath id="clip0">
            <rect width="657" height="211" fill="white"/>
        </clipPath>
    </defs>
</svg>
