<svg width="1030" height="554" viewBox="0 0 1030 554" fill="none" xmlns="http://www.w3.org/2000/svg">
    <g clip-path="url(#clip0)">
        <path d="M639.705 69.5526L639.225 75.4012C639.155 76.1955 637.485 95.1058 625.17 117.206C614.602 136.161 594.036 160.85 555.208 174.725C552.179 175.814 549.034 176.831 545.775 177.774L542.139 167.397C551.266 164.785 560.058 161.289 568.362 156.968C588.153 146.577 603.54 131.748 614.27 112.664C619.964 102.504 624.021 91.6526 626.318 80.4426H582.143V69.5526H639.705Z" fill="#6C63FF"/>
        <path opacity="0.1" d="M550.453 174.732C589.273 160.856 609.846 136.174 620.407 117.219C632.723 95.1187 634.399 76.2212 634.463 75.414L634.942 69.5654H639.874L639.395 75.414C639.331 76.2084 637.654 95.1187 625.339 117.219C614.771 136.174 594.205 160.856 555.385 174.732C552.355 175.821 549.208 176.839 545.944 177.787L545.465 176.423C547.165 175.872 548.828 175.308 550.453 174.732Z" fill="white"/>
        <path d="M472.727 167.397L469.092 177.774C465.827 176.826 462.68 175.808 459.651 174.719C420.83 160.843 400.258 136.161 389.697 117.206C377.381 95.1058 375.704 76.2083 375.641 75.4012L375.162 69.5526H432.695V80.4426H388.513C390.822 91.654 394.892 102.505 400.596 112.664C411.326 131.748 426.706 146.578 446.497 156.962C454.803 161.287 463.597 164.786 472.727 167.397V167.397Z" fill="#6C63FF"/>
        <path opacity="0.1" d="M464.4 174.732C425.579 160.856 405.006 136.174 394.445 117.219C382.13 95.1187 380.453 76.2212 380.39 75.414L379.91 69.5654H374.979L375.458 75.414C375.521 76.2084 377.198 95.1187 389.513 117.219C400.082 136.174 420.647 160.856 459.468 174.732C462.497 175.821 465.644 176.839 468.909 177.787L469.388 176.423C467.692 175.872 466.029 175.308 464.4 174.732Z" fill="white"/>
        <path d="M573.893 267.714V326.437H440.966V267.714L445.194 262.589C488.27 248.688 496.999 212.437 498.739 198.094C498.998 196.112 499.146 194.119 499.183 192.124H515.62C515.657 194.119 515.805 196.112 516.064 198.094C517.832 212.437 526.562 248.701 569.609 262.589L573.893 267.714Z" fill="#6C63FF"/>
        <path opacity="0.1" d="M573.893 267.714H440.966V275.081H573.893V267.714Z" fill="black"/>
        <path opacity="0.1" d="M452.239 262.589C495.315 248.688 504.044 212.437 505.784 198.094C506.043 196.112 506.192 194.119 506.228 192.124H499.183C499.146 194.119 498.998 196.112 498.739 198.094C496.971 212.437 488.241 248.701 445.194 262.589L440.966 267.714V326.437H448.012V267.714L452.239 262.589Z" fill="white"/>
        <path opacity="0.1" d="M420.774 69.5526H432.695V80.4426H421.831C421.404 76.8553 421.051 73.2253 420.774 69.5526Z" fill="black"/>
        <path opacity="0.1" d="M472.727 167.397L469.092 177.774C465.827 176.826 462.68 175.808 459.651 174.719C454.667 169.185 450.264 163.24 446.497 156.962C454.803 161.287 463.597 164.786 472.727 167.397Z" fill="black"/>
        <path opacity="0.1" d="M542.132 167.397C551.259 164.785 560.051 161.289 568.355 156.968C564.587 163.248 560.183 169.195 555.201 174.732C552.172 175.821 549.027 176.837 545.768 177.781L542.132 167.397Z" fill="black"/>
        <path opacity="0.1" d="M594.078 69.5526C593.801 73.2253 593.449 76.8553 593.021 80.4426H582.164V69.5526H594.078Z" fill="black"/>
        <path opacity="0.1" d="M516.092 198.094C510.37 199.102 504.489 199.102 498.767 198.094C499.026 196.112 499.174 194.119 499.211 192.124H515.648C515.685 194.119 515.833 196.112 516.092 198.094V198.094Z" fill="black"/>
        <path d="M422.183 51.5135C422.486 132.267 460.532 197.569 507.433 197.569C554.335 197.569 592.373 132.267 592.683 51.5135H422.183Z" fill="#6C63FF"/>
        <path opacity="0.1" d="M437.331 51.5135H422.183C422.486 132.267 460.532 197.569 507.433 197.569C509.971 197.565 512.504 197.37 515.007 196.986C471.649 190.4 437.62 127.872 437.331 51.5135Z" fill="white"/>
        <path d="M552.637 290.192H462.223V311.332H552.637V290.192Z" fill="#3F3D56"/>
        <path opacity="0.1" d="M466.45 293.075H552.637V290.192H462.223V311.332H466.45V293.075Z" fill="white"/>
        <path d="M350.016 372.69C354.111 372.69 358.025 373.082 361.759 373.865C365.553 374.587 369.076 375.581 372.328 376.846C375.58 378.05 378.53 379.435 381.18 381.001C383.83 382.567 386.088 384.132 387.955 385.698L411.441 369.529L384.432 421.379L382.354 394.189C380.608 392.985 378.711 391.931 376.664 391.028C374.676 390.064 372.659 389.281 370.611 388.679C368.624 388.017 366.697 387.505 364.83 387.144C362.963 386.722 361.307 386.391 359.862 386.15C358.417 385.909 357.242 385.758 356.339 385.698C355.496 385.578 355.044 385.518 354.984 385.518C350.889 385.518 347.456 385.969 344.686 386.873C341.916 387.776 339.658 388.95 337.911 390.396C336.225 391.841 334.99 393.497 334.208 395.364C333.485 397.17 333.124 399.007 333.124 400.874C333.124 404.668 333.906 407.89 335.472 410.54C337.038 413.129 339.417 415.448 342.608 417.495C345.8 419.543 349.865 421.47 354.803 423.276C359.741 425.023 365.553 426.92 372.237 428.967C376.272 430.232 380.066 431.948 383.619 434.116C387.232 436.224 390.364 438.723 393.014 441.614C395.663 444.444 397.741 447.636 399.247 451.189C400.812 454.682 401.595 458.446 401.595 462.48C401.595 467.178 400.933 471.363 399.608 475.037C398.283 478.65 396.507 481.842 394.278 484.612C392.11 487.322 389.581 489.64 386.69 491.567C383.8 493.434 380.789 494.94 377.657 496.084C374.586 497.288 371.454 498.132 368.263 498.613C365.131 499.155 362.18 499.426 359.41 499.426C351.28 499.426 343.903 498.041 337.279 495.271C330.654 492.501 324.482 488.707 318.761 483.889L295.274 499.968L321.471 453.538C322.193 457.874 323.458 462.059 325.265 466.094C327.132 470.068 329.42 473.621 332.13 476.753C334.84 479.884 337.971 482.384 341.524 484.25C345.077 486.117 348.962 487.051 353.177 487.051C356.55 487.051 359.621 486.539 362.391 485.515C365.222 484.491 367.63 483.136 369.618 481.45C371.605 479.704 373.141 477.716 374.225 475.488C375.369 473.2 375.941 470.821 375.941 468.352C375.941 464.919 374.977 461.969 373.05 459.5C371.123 456.97 368.594 454.742 365.462 452.815C362.331 450.828 358.748 449.021 354.713 447.395C350.738 445.709 346.643 443.993 342.428 442.246C338.212 440.5 334.087 438.573 330.052 436.465C326.078 434.357 322.525 431.888 319.393 429.058C316.262 426.167 313.732 422.795 311.805 418.94C309.878 415.086 308.915 410.54 308.915 405.3C308.915 401.265 309.697 397.321 311.263 393.467C312.889 389.552 315.358 386.06 318.67 382.988C322.043 379.917 326.319 377.448 331.498 375.581C336.677 373.654 342.849 372.69 350.016 372.69ZM501.141 414.695L482.442 421.199L443.961 457.783C446.37 460.734 448.688 463.263 450.917 465.371C453.145 467.479 455.252 469.285 457.24 470.791C459.227 472.297 461.064 473.501 462.75 474.404C464.496 475.308 466.092 476 467.538 476.482C470.85 477.626 473.861 477.987 476.571 477.566C478.498 477.445 480.576 476.843 482.804 475.759C484.731 474.856 486.929 473.411 489.398 471.423C491.927 469.436 494.607 466.576 497.438 462.842C496.354 469.526 494.758 475.097 492.65 479.553C490.602 483.949 488.434 487.472 486.146 490.122C483.858 492.712 481.66 494.548 479.552 495.632C477.504 496.716 475.938 497.258 474.854 497.258C471.723 496.777 468.26 495.361 464.466 493.013C462.84 492.049 461.034 490.815 459.046 489.309C457.119 487.804 455.042 485.997 452.813 483.889C450.646 481.781 448.327 479.312 445.858 476.482C443.389 473.591 440.86 470.279 438.27 466.545L438.451 483.889L450.465 493.916H405.299L419.21 482.625L425.624 381.995L405.479 371.968L437.457 366.638L438.089 448.389L463.382 416.05L452.994 404.578L501.141 414.695ZM500.147 495.903L514.33 484.792L511.258 422.463L494.547 411.533L533.39 404.939L526.434 477.385L545.855 489.49L500.147 495.903ZM534.383 383.079C534.383 384.885 534.022 386.602 533.299 388.228C532.577 389.793 531.583 391.208 530.318 392.473C529.054 393.678 527.608 394.641 525.982 395.364C524.356 396.026 522.64 396.357 520.833 396.357C518.906 396.357 517.1 396.026 515.414 395.364C513.788 394.641 512.372 393.678 511.168 392.473C509.964 391.208 509 389.793 508.277 388.228C507.555 386.602 507.193 384.885 507.193 383.079C507.193 381.212 507.555 379.495 508.277 377.93C509 376.304 509.964 374.889 511.168 373.684C512.372 372.48 513.788 371.546 515.414 370.884C517.1 370.161 518.906 369.8 520.833 369.8C522.64 369.8 524.356 370.161 525.982 370.884C527.608 371.546 529.054 372.48 530.318 373.684C531.583 374.889 532.577 376.304 533.299 377.93C534.022 379.495 534.383 381.212 534.383 383.079ZM569.342 483.708L587.408 490.935L542.152 495.361L558.412 482.625L555.611 385.066L534.745 376.033L580.453 369.98L569.342 483.708ZM613.424 483.708L631.49 490.935L586.234 495.361L602.494 482.625L599.693 385.066L578.827 376.033L624.535 369.98L613.424 483.708ZM671.869 403.042C674.157 403.042 676.476 403.253 678.824 403.674C681.173 404.036 683.461 404.608 685.689 405.391C687.978 406.113 690.116 407.017 692.103 408.101C694.151 409.124 695.987 410.269 697.613 411.533L712.428 393.286L705.743 438.362C705.021 435.23 703.756 432.159 701.949 429.148C700.143 426.077 697.884 423.337 695.174 420.928C692.525 418.519 689.453 416.592 685.96 415.146C682.468 413.641 678.644 412.888 674.488 412.888C672.2 412.888 670.002 413.159 667.894 413.701C665.786 414.183 663.919 414.996 662.293 416.14C660.728 417.284 659.463 418.73 658.5 420.476C657.596 422.222 657.145 424.3 657.145 426.709C657.145 429.6 657.927 431.948 659.493 433.755C661.119 435.562 663.227 437.097 665.816 438.362C668.406 439.566 671.357 440.62 674.669 441.523C677.981 442.367 681.384 443.27 684.876 444.233C688.369 445.197 691.772 446.341 695.084 447.666C698.396 448.931 701.347 450.587 703.937 452.634C706.526 454.682 708.604 457.241 710.169 460.312C711.795 463.324 712.608 467.057 712.608 471.514C712.608 476.512 711.615 480.788 709.627 484.341C707.7 487.834 705.201 490.724 702.13 493.013C699.059 495.241 695.656 496.867 691.922 497.891C688.189 498.914 684.545 499.426 680.992 499.426C678.102 499.426 675.211 499.125 672.32 498.523C669.43 497.921 666.629 497.078 663.919 495.994C661.209 494.91 658.62 493.615 656.151 492.109C653.742 490.604 651.544 488.978 649.557 487.231L635.826 505.569L640.072 460.764C641.999 464.859 644.317 468.683 647.027 472.236C649.737 475.789 652.748 478.891 656.061 481.541C659.373 484.13 662.926 486.178 666.72 487.683C670.514 489.128 674.458 489.851 678.553 489.851C683.311 489.851 687.105 488.857 689.935 486.87C692.826 484.823 694.271 481.932 694.271 478.198C694.271 475.789 693.458 473.802 691.832 472.236C690.266 470.61 688.159 469.195 685.509 467.991C682.919 466.786 679.968 465.702 676.656 464.739C673.344 463.775 669.942 462.721 666.449 461.577C662.956 460.433 659.553 459.108 656.241 457.603C652.929 456.037 649.948 454.11 647.298 451.821C644.709 449.473 642.601 446.642 640.975 443.33C639.409 439.958 638.626 435.893 638.626 431.135C638.626 427.04 639.229 423.487 640.433 420.476C641.638 417.465 643.203 414.936 645.13 412.888C647.118 410.78 649.316 409.094 651.725 407.83C654.194 406.505 656.663 405.511 659.132 404.849C661.601 404.126 663.95 403.644 666.178 403.403C668.406 403.162 670.303 403.042 671.869 403.042Z" fill="white"/>
        <path d="M361.759 373.865L361.554 374.843L361.563 374.845L361.572 374.847L361.759 373.865ZM372.328 376.846L371.965 377.778L371.973 377.781L371.98 377.783L372.328 376.846ZM387.955 385.698L387.312 386.464L387.895 386.953L388.522 386.522L387.955 385.698ZM411.441 369.529L412.328 369.991L410.874 368.705L411.441 369.529ZM384.432 421.379L383.435 421.456L383.702 424.946L385.319 421.841L384.432 421.379ZM382.354 394.189L383.352 394.113L383.315 393.637L382.922 393.366L382.354 394.189ZM376.664 391.028L376.227 391.928L376.243 391.935L376.26 391.943L376.664 391.028ZM370.611 388.679L370.295 389.628L370.312 389.634L370.329 389.639L370.611 388.679ZM364.83 387.144L364.61 388.119L364.625 388.122L364.64 388.125L364.83 387.144ZM356.339 385.698L356.197 386.688L356.235 386.694L356.272 386.696L356.339 385.698ZM344.686 386.873L344.996 387.823L344.686 386.873ZM337.911 390.396L337.274 389.625L337.267 389.631L337.26 389.636L337.911 390.396ZM334.208 395.364L333.285 394.977L333.282 394.985L333.279 394.992L334.208 395.364ZM335.472 410.54L334.611 411.048L334.616 411.057L335.472 410.54ZM354.803 423.276L354.46 424.216L354.47 424.219L354.803 423.276ZM372.237 428.967L372.536 428.013L372.53 428.011L372.237 428.967ZM383.619 434.116L383.098 434.97L383.107 434.975L383.115 434.98L383.619 434.116ZM393.014 441.614L392.276 442.29L392.284 442.297L393.014 441.614ZM399.247 451.189L398.326 451.579L398.33 451.589L398.334 451.598L399.247 451.189ZM399.608 475.037L400.547 475.381L400.549 475.376L399.608 475.037ZM394.278 484.612L393.499 483.985L393.497 483.987L394.278 484.612ZM386.69 491.567L387.233 492.407L387.239 492.403L387.245 492.399L386.69 491.567ZM377.657 496.084L377.314 495.145L377.303 495.149L377.292 495.153L377.657 496.084ZM368.263 498.613L368.113 497.624L368.103 497.626L368.092 497.628L368.263 498.613ZM318.761 483.889L319.405 483.124L318.823 482.634L318.196 483.064L318.761 483.889ZM295.274 499.968L294.403 499.477L295.839 500.793L295.274 499.968ZM321.471 453.538L322.457 453.373L321.991 450.58L320.6 453.046L321.471 453.538ZM325.265 466.094L324.352 466.502L324.356 466.511L324.36 466.519L325.265 466.094ZM362.391 485.515L362.051 484.575L362.044 484.577L362.391 485.515ZM369.618 481.45L370.265 482.213L370.271 482.207L370.278 482.201L369.618 481.45ZM374.225 475.488L373.33 475.041L373.325 475.051L374.225 475.488ZM373.05 459.5L372.255 460.106L372.262 460.115L373.05 459.5ZM365.462 452.815L364.927 453.659L364.938 453.667L365.462 452.815ZM354.713 447.395L354.322 448.316L354.331 448.319L354.339 448.323L354.713 447.395ZM330.052 436.465L329.584 437.348L329.589 437.351L330.052 436.465ZM319.393 429.058L318.715 429.792L318.723 429.799L319.393 429.058ZM311.805 418.94L310.911 419.388L311.805 418.94ZM311.263 393.467L310.34 393.083L310.337 393.09L311.263 393.467ZM318.67 382.988L317.997 382.249L317.99 382.255L318.67 382.988ZM331.498 375.581L331.837 376.522L331.846 376.518L331.498 375.581ZM350.016 373.69C354.047 373.69 357.892 374.076 361.554 374.843L361.964 372.886C358.158 372.088 354.175 371.69 350.016 371.69V373.69ZM361.572 374.847C365.312 375.56 368.776 376.537 371.965 377.778L372.69 375.914C369.376 374.625 365.793 373.615 361.946 372.882L361.572 374.847ZM371.98 377.783C375.183 378.97 378.079 380.33 380.671 381.862L381.689 380.14C378.982 378.54 375.976 377.131 372.675 375.908L371.98 377.783ZM380.671 381.862C383.286 383.407 385.497 384.942 387.312 386.464L388.598 384.932C386.68 383.323 384.374 381.727 381.689 380.14L380.671 381.862ZM388.522 386.522L412.008 370.352L410.874 368.705L387.388 384.875L388.522 386.522ZM410.555 369.067L383.545 420.917L385.319 421.841L412.328 369.991L410.555 369.067ZM385.429 421.303L383.352 394.113L381.357 394.266L383.435 421.456L385.429 421.303ZM382.922 393.366C381.121 392.124 379.169 391.04 377.067 390.113L376.26 391.943C378.253 392.822 380.095 393.846 381.787 395.013L382.922 393.366ZM377.1 390.128C375.065 389.141 372.996 388.338 370.893 387.72L370.329 389.639C372.322 390.225 374.288 390.987 376.227 391.928L377.1 390.128ZM370.928 387.731C368.903 387.056 366.934 386.532 365.02 386.162L364.64 388.125C366.46 388.478 368.345 388.978 370.295 389.628L370.928 387.731ZM365.05 386.168C363.17 385.744 361.495 385.408 360.026 385.164L359.697 387.136C361.119 387.373 362.756 387.7 364.61 388.119L365.05 386.168ZM360.026 385.164C358.566 384.92 357.355 384.764 356.405 384.7L356.272 386.696C357.129 386.753 358.267 386.898 359.697 387.136L360.026 385.164ZM356.48 384.708C356.058 384.648 355.73 384.602 355.5 384.572C355.385 384.556 355.291 384.544 355.219 384.536C355.18 384.531 355.072 384.518 354.984 384.518V386.518C354.938 386.518 354.907 386.514 354.93 386.516C354.939 386.517 354.957 386.519 354.986 386.522C355.042 386.529 355.125 386.539 355.236 386.554C355.457 386.583 355.777 386.628 356.197 386.688L356.48 384.708ZM354.984 384.518C350.823 384.518 347.278 384.976 344.376 385.922L344.996 387.823C347.635 386.963 350.955 386.518 354.984 386.518V384.518ZM344.376 385.922C341.519 386.854 339.14 388.08 337.274 389.625L338.549 391.166C340.175 389.82 342.313 388.698 344.996 387.823L344.376 385.922ZM337.26 389.636C335.468 391.173 334.134 392.953 333.285 394.977L335.13 395.75C335.847 394.041 336.982 392.509 338.562 391.155L337.26 389.636ZM333.279 394.992C332.511 396.912 332.124 398.875 332.124 400.874H334.124C334.124 399.14 334.459 397.429 335.136 395.735L333.279 394.992ZM332.124 400.874C332.124 404.806 332.935 408.212 334.611 411.048L336.333 410.031C334.877 407.567 334.124 404.53 334.124 400.874H332.124ZM334.616 411.057C336.279 413.806 338.78 416.227 342.068 418.337L343.148 416.653C340.054 414.668 337.797 412.452 336.328 410.022L334.616 411.057ZM342.068 418.337C345.34 420.436 349.477 422.393 354.46 424.215L355.147 422.337C350.253 420.547 346.26 418.649 343.148 416.653L342.068 418.337ZM354.47 424.219C359.425 425.972 365.25 427.873 371.944 429.923L372.53 428.011C365.855 425.966 360.058 424.074 355.137 422.334L354.47 424.219ZM371.938 429.922C375.897 431.162 379.616 432.845 383.098 434.97L384.14 433.263C380.516 431.051 376.648 429.302 372.536 428.013L371.938 429.922ZM383.115 434.98C386.648 437.041 389.699 439.478 392.277 442.289L393.751 440.938C391.029 437.969 387.817 435.407 384.123 433.252L383.115 434.98ZM392.284 442.297C394.853 445.042 396.866 448.135 398.326 451.579L400.167 450.799C398.616 447.137 396.473 443.846 393.744 440.93L392.284 442.297ZM398.334 451.598C399.839 454.955 400.595 458.579 400.595 462.48H402.595C402.595 458.312 401.786 454.408 400.159 450.78L398.334 451.598ZM400.595 462.48C400.595 467.085 399.946 471.152 398.667 474.697L400.549 475.376C401.92 471.574 402.595 467.271 402.595 462.48H400.595ZM398.669 474.692C397.379 478.212 395.654 481.306 393.499 483.985L395.058 485.239C397.359 482.377 399.188 479.088 400.547 475.381L398.669 474.692ZM393.497 483.987C391.394 486.617 388.941 488.865 386.136 490.735L387.245 492.399C390.221 490.415 392.827 488.027 395.059 485.237L393.497 483.987ZM386.148 490.727C383.318 492.555 380.373 494.027 377.314 495.145L378 497.023C381.204 495.853 384.282 494.313 387.233 492.407L386.148 490.727ZM377.292 495.153C374.289 496.331 371.23 497.154 368.113 497.624L368.412 499.602C371.679 499.109 374.883 498.246 378.022 497.015L377.292 495.153ZM368.092 497.628C365.009 498.162 362.116 498.426 359.41 498.426V500.426C362.245 500.426 365.253 500.149 368.433 499.599L368.092 497.628ZM359.41 498.426C351.395 498.426 344.152 497.061 337.665 494.348L336.893 496.194C343.655 499.021 351.165 500.426 359.41 500.426V498.426ZM337.665 494.348C331.138 491.619 325.052 487.879 319.405 483.124L318.117 484.654C323.912 489.534 330.171 493.383 336.893 496.194L337.665 494.348ZM318.196 483.064L294.71 499.143L295.839 500.793L319.326 484.714L318.196 483.064ZM296.145 500.46L322.342 454.029L320.6 453.046L294.403 499.477L296.145 500.46ZM320.484 453.702C321.221 458.123 322.511 462.39 324.352 466.502L326.177 465.685C324.405 461.728 323.166 457.624 322.457 453.373L320.484 453.702ZM324.36 466.519C326.263 470.571 328.6 474.203 331.374 477.407L332.886 476.099C330.24 473.04 328 469.565 326.17 465.669L324.36 466.519ZM331.374 477.407C334.163 480.63 337.392 483.209 341.059 485.136L341.99 483.365C338.551 481.558 335.517 479.139 332.886 476.099L331.374 477.407ZM341.059 485.136C344.763 487.082 348.808 488.051 353.177 488.051V486.051C349.115 486.051 345.392 485.153 341.99 483.365L341.059 485.136ZM353.177 488.051C356.651 488.051 359.842 487.523 362.738 486.453L362.044 484.577C359.4 485.555 356.448 486.051 353.177 486.051V488.051ZM362.731 486.456C365.657 485.397 368.174 483.987 370.265 482.213L368.971 480.688C367.087 482.286 364.786 483.585 362.051 484.575L362.731 486.456ZM370.278 482.201C372.358 480.373 373.978 478.281 375.124 475.926L373.325 475.051C372.303 477.152 370.852 479.034 368.958 480.699L370.278 482.201ZM375.119 475.935C376.33 473.513 376.941 470.982 376.941 468.352H374.941C374.941 470.66 374.408 472.886 373.33 475.041L375.119 475.935ZM376.941 468.352C376.941 464.719 375.916 461.546 373.839 458.884L372.262 460.115C374.039 462.391 374.941 465.12 374.941 468.352H376.941ZM373.846 458.893C371.833 456.252 369.207 453.945 365.986 451.963L364.938 453.667C367.981 455.539 370.413 457.688 372.255 460.106L373.846 458.893ZM365.998 451.971C362.807 449.946 359.169 448.112 355.087 446.468L354.339 448.323C358.327 449.93 361.854 451.71 364.927 453.659L365.998 451.971ZM355.103 446.474C351.126 444.787 347.028 443.07 342.81 441.322L342.045 443.17C346.258 444.915 350.35 446.631 354.322 448.316L355.103 446.474ZM342.81 441.322C338.622 439.587 334.524 437.673 330.515 435.578L329.589 437.351C333.65 439.473 337.802 441.412 342.045 443.17L342.81 441.322ZM330.521 435.581C326.614 433.51 323.13 431.087 320.064 428.316L318.723 429.799C321.919 432.689 325.541 435.204 329.584 437.348L330.521 435.581ZM320.071 428.323C317.03 425.515 314.573 422.24 312.7 418.493L310.911 419.388C312.891 423.349 315.493 426.819 318.715 429.792L320.071 428.323ZM312.7 418.493C310.855 414.805 309.915 410.417 309.915 405.3H307.915C307.915 410.662 308.901 415.368 310.911 419.388L312.7 418.493ZM309.915 405.3C309.915 401.399 310.671 397.582 312.19 393.843L310.337 393.09C308.724 397.06 307.915 401.132 307.915 405.3H309.915ZM312.187 393.85C313.754 390.077 316.136 386.702 319.35 383.722L317.99 382.255C314.58 385.417 312.024 389.028 310.34 393.083L312.187 393.85ZM319.344 383.728C322.601 380.761 326.756 378.353 331.837 376.522L331.158 374.64C325.881 376.543 321.484 379.073 317.997 382.249L319.344 383.728ZM331.846 376.518C336.886 374.643 342.935 373.69 350.016 373.69V371.69C342.764 371.69 336.467 372.665 331.149 374.644L331.846 376.518ZM501.141 414.695L501.47 415.639L504.87 414.457L501.347 413.716L501.141 414.695ZM482.442 421.199L482.114 420.254L481.91 420.325L481.753 420.474L482.442 421.199ZM443.961 457.783L443.272 457.058L442.6 457.697L443.186 458.416L443.961 457.783ZM457.24 470.791L456.636 471.588L457.24 470.791ZM462.75 474.404L462.278 475.286L462.284 475.289L462.291 475.293L462.75 474.404ZM467.538 476.482L467.864 475.537L467.854 475.533L467.538 476.482ZM476.571 477.566L476.508 476.568L476.463 476.571L476.417 476.578L476.571 477.566ZM482.804 475.759L482.379 474.854L482.373 474.857L482.366 474.86L482.804 475.759ZM489.398 471.423L488.78 470.637L488.771 470.644L489.398 471.423ZM497.438 462.842L498.425 463.002L496.641 462.238L497.438 462.842ZM492.65 479.553L491.746 479.126L491.743 479.131L492.65 479.553ZM486.146 490.122L486.895 490.784L486.903 490.776L486.146 490.122ZM479.552 495.632L479.094 494.743L479.084 494.749L479.552 495.632ZM474.854 497.258L474.702 498.247L474.778 498.258H474.854V497.258ZM464.466 493.013L464.993 492.162L464.984 492.157L464.976 492.152L464.466 493.013ZM459.046 489.309L458.431 490.097L458.437 490.102L458.443 490.106L459.046 489.309ZM452.813 483.889L452.116 484.606L452.126 484.616L452.813 483.889ZM445.858 476.482L445.097 477.131L445.104 477.139L445.858 476.482ZM438.27 466.545L439.092 465.976L437.236 463.3L437.27 466.556L438.27 466.545ZM438.451 483.889L437.451 483.9L437.456 484.361L437.81 484.657L438.451 483.889ZM450.465 493.916V494.916H453.224L451.106 493.148L450.465 493.916ZM405.299 493.916L404.669 493.14L402.48 494.916H405.299V493.916ZM419.21 482.625L419.84 483.401L420.18 483.125L420.208 482.688L419.21 482.625ZM425.624 381.995L426.622 382.058L426.664 381.395L426.069 381.099L425.624 381.995ZM405.479 371.968L405.315 370.981L402.272 371.488L405.034 372.863L405.479 371.968ZM437.457 366.638L438.457 366.63L438.448 365.459L437.293 365.652L437.457 366.638ZM438.089 448.389L437.089 448.396L437.112 451.262L438.877 449.005L438.089 448.389ZM463.382 416.05L464.17 416.666L464.689 416.003L464.124 415.379L463.382 416.05ZM452.994 404.578L453.2 403.599L450.185 402.966L452.253 405.249L452.994 404.578ZM500.813 413.75L482.114 420.254L482.771 422.143L501.47 415.639L500.813 413.75ZM481.753 420.474L443.272 457.058L444.65 458.508L483.131 421.923L481.753 420.474ZM443.186 458.416C445.616 461.392 447.964 463.954 450.229 466.098L451.604 464.645C449.413 462.572 447.124 460.076 444.736 457.151L443.186 458.416ZM450.229 466.098C452.478 468.225 454.614 470.056 456.636 471.588L457.844 469.994C455.891 468.515 453.811 466.733 451.604 464.645L450.229 466.098ZM456.636 471.588C458.653 473.116 460.534 474.352 462.278 475.286L463.222 473.523C461.593 472.65 459.801 471.477 457.844 469.994L456.636 471.588ZM462.291 475.293C464.071 476.213 465.715 476.929 467.221 477.431L467.854 475.533C466.469 475.072 464.922 474.402 463.209 473.516L462.291 475.293ZM467.211 477.427C470.636 478.61 473.815 479.007 476.725 478.554L476.417 476.578C473.907 476.968 471.064 476.642 467.864 475.537L467.211 477.427ZM476.633 478.564C478.722 478.433 480.927 477.784 483.241 476.659L482.366 474.86C480.224 475.902 478.274 476.458 476.508 476.568L476.633 478.564ZM483.228 476.665C485.253 475.715 487.521 474.218 490.025 472.202L488.771 470.644C486.337 472.603 484.208 473.997 482.379 474.854L483.228 476.665ZM490.016 472.21C492.635 470.151 495.374 467.22 498.234 463.446L496.641 462.238C493.841 465.931 491.219 468.721 488.78 470.637L490.016 472.21ZM496.45 462.682C495.376 469.306 493.802 474.779 491.746 479.126L493.554 479.981C495.714 475.415 497.331 469.747 498.425 463.002L496.45 462.682ZM491.743 479.131C489.721 483.473 487.599 486.91 485.389 489.468L486.903 490.776C489.27 488.035 491.484 484.426 493.556 479.975L491.743 479.131ZM485.397 489.46C483.156 491.995 481.053 493.736 479.094 494.743L480.009 496.522C482.266 495.361 484.559 493.428 486.895 490.784L485.397 489.46ZM479.084 494.749C477.052 495.824 475.674 496.258 474.854 496.258V498.258C476.202 498.258 477.957 497.608 480.02 496.516L479.084 494.749ZM475.007 496.27C472.05 495.815 468.716 494.467 464.993 492.162L463.94 493.863C467.805 496.256 471.396 497.738 474.702 498.247L475.007 496.27ZM464.976 492.152C463.391 491.213 461.616 490.001 459.65 488.512L458.443 490.106C460.451 491.628 462.29 492.885 463.957 493.873L464.976 492.152ZM459.662 488.521C457.765 487.039 455.711 485.254 453.501 483.163L452.126 484.616C454.372 486.74 456.474 488.568 458.431 490.097L459.662 488.521ZM453.511 483.172C451.366 481.087 449.067 478.639 446.611 475.825L445.104 477.139C447.587 479.986 449.925 482.475 452.116 484.606L453.511 483.172ZM446.618 475.832C444.175 472.972 441.666 469.687 439.092 465.976L437.448 467.115C440.053 470.871 442.603 474.211 445.098 477.131L446.618 475.832ZM437.27 466.556L437.451 483.9L439.451 483.879L439.27 466.535L437.27 466.556ZM437.81 484.657L449.824 494.684L451.106 493.148L439.091 483.121L437.81 484.657ZM450.465 492.916H405.299V494.916H450.465V492.916ZM405.929 494.692L419.84 483.401L418.58 481.848L404.669 493.14L405.929 494.692ZM420.208 482.688L426.622 382.058L424.626 381.931L418.212 482.561L420.208 482.688ZM426.069 381.099L405.925 371.073L405.034 372.863L425.178 382.89L426.069 381.099ZM405.644 372.954L437.621 367.625L437.293 365.652L405.315 370.981L405.644 372.954ZM436.457 366.646L437.089 448.396L439.089 448.381L438.457 366.63L436.457 366.646ZM438.877 449.005L464.17 416.666L462.595 415.434L437.302 447.773L438.877 449.005ZM464.124 415.379L453.735 403.906L452.253 405.249L462.641 416.721L464.124 415.379ZM452.789 405.556L500.935 415.673L501.347 413.716L453.2 403.599L452.789 405.556ZM500.147 495.903L499.531 495.116L496.602 497.411L500.286 496.894L500.147 495.903ZM514.33 484.792L514.946 485.58L515.354 485.26L515.328 484.743L514.33 484.792ZM511.258 422.463L512.257 422.414L512.232 421.905L511.806 421.626L511.258 422.463ZM494.547 411.533L494.38 410.547L491.865 410.974L494 412.37L494.547 411.533ZM533.39 404.939L534.385 405.035L534.51 403.734L533.222 403.953L533.39 404.939ZM526.434 477.385L525.439 477.29L525.379 477.906L525.905 478.234L526.434 477.385ZM545.855 489.49L545.994 490.48L548.721 490.097L546.384 488.641L545.855 489.49ZM533.299 388.228L534.207 388.647L534.21 388.64L534.213 388.634L533.299 388.228ZM530.318 392.473L531.008 393.197L531.017 393.189L531.025 393.18L530.318 392.473ZM525.982 395.364L526.36 396.29L526.374 396.284L526.389 396.278L525.982 395.364ZM515.414 395.364L515.007 396.278L515.027 396.286L515.048 396.295L515.414 395.364ZM511.168 392.473L510.444 393.163L510.452 393.172L510.461 393.18L511.168 392.473ZM508.277 388.228L507.364 388.634L507.366 388.64L507.369 388.647L508.277 388.228ZM508.277 377.93L509.185 378.349L509.188 378.342L509.191 378.336L508.277 377.93ZM515.414 370.884L515.791 371.81L515.799 371.806L515.807 371.803L515.414 370.884ZM525.982 370.884L525.576 371.798L525.591 371.804L525.605 371.81L525.982 370.884ZM533.299 377.93L532.386 378.336L532.388 378.342L532.391 378.349L533.299 377.93ZM500.764 496.691L514.946 485.58L513.713 484.005L499.531 495.116L500.764 496.691ZM515.328 484.743L512.257 422.414L510.26 422.513L513.331 484.842L515.328 484.743ZM511.806 421.626L495.094 410.696L494 412.37L510.711 423.3L511.806 421.626ZM494.714 412.519L533.557 405.925L533.222 403.953L494.38 410.547L494.714 412.519ZM532.394 404.843L525.439 477.29L527.43 477.481L534.385 405.035L532.394 404.843ZM525.905 478.234L545.327 490.338L546.384 488.641L526.963 476.537L525.905 478.234ZM545.717 488.499L500.009 494.913L500.286 496.894L545.994 490.48L545.717 488.499ZM533.383 383.079C533.383 384.748 533.05 386.325 532.386 387.821L534.213 388.634C534.994 386.878 535.383 385.023 535.383 383.079H533.383ZM532.391 387.808C531.72 389.263 530.796 390.582 529.611 391.766L531.025 393.18C532.37 391.835 533.433 390.323 534.207 388.647L532.391 387.808ZM529.629 391.749C528.449 392.873 527.1 393.773 525.576 394.45L526.389 396.278C528.117 395.509 529.659 394.482 531.008 393.197L529.629 391.749ZM525.605 394.438C524.102 395.05 522.515 395.357 520.833 395.357V397.357C522.766 397.357 524.61 397.003 526.36 396.29L525.605 394.438ZM520.833 395.357C519.023 395.357 517.342 395.047 515.779 394.433L515.048 396.295C516.858 397.006 518.789 397.357 520.833 397.357V395.357ZM515.82 394.45C514.301 393.775 512.989 392.88 511.875 391.766L510.461 393.18C511.756 394.475 513.274 395.507 515.007 396.278L515.82 394.45ZM511.892 391.783C510.762 390.597 509.861 389.273 509.185 387.808L507.369 388.647C508.139 390.313 509.165 391.82 510.444 393.163L511.892 391.783ZM509.191 387.821C508.526 386.325 508.193 384.748 508.193 383.079H506.193C506.193 385.023 506.583 386.878 507.364 388.634L509.191 387.821ZM508.193 383.079C508.193 381.344 508.528 379.773 509.185 378.349L507.369 377.511C506.581 379.218 506.193 381.079 506.193 383.079H508.193ZM509.191 378.336C509.866 376.817 510.761 375.505 511.875 374.391L510.461 372.977C509.166 374.272 508.134 375.79 507.364 377.524L509.191 378.336ZM511.875 374.391C512.982 373.284 514.284 372.424 515.791 371.81L515.036 369.958C513.291 370.669 511.762 371.675 510.461 372.977L511.875 374.391ZM515.807 371.803C517.363 371.136 519.035 370.8 520.833 370.8V368.8C518.778 368.8 516.837 369.186 515.02 369.965L515.807 371.803ZM520.833 370.8C522.502 370.8 524.08 371.133 525.576 371.798L526.389 369.97C524.633 369.19 522.778 368.8 520.833 368.8V370.8ZM525.605 371.81C527.116 372.425 528.455 373.291 529.629 374.408L531.008 372.96C529.652 371.669 528.101 370.667 526.36 369.958L525.605 371.81ZM529.629 374.408C530.797 375.521 531.715 376.827 532.386 378.336L534.213 377.524C533.438 375.78 532.369 374.256 531.008 372.96L529.629 374.408ZM532.391 378.349C533.048 379.773 533.383 381.344 533.383 383.079H535.383C535.383 381.079 534.995 379.218 534.207 377.511L532.391 378.349ZM569.342 483.708L568.347 483.611L568.274 484.358L568.97 484.637L569.342 483.708ZM587.408 490.935L587.506 491.93L587.78 490.007L587.408 490.935ZM542.152 495.361L541.535 494.574L538.833 496.691L542.249 496.357L542.152 495.361ZM558.412 482.625L559.028 483.412L559.426 483.1L559.411 482.596L558.412 482.625ZM555.611 385.066L556.611 385.037L556.593 384.401L556.009 384.148L555.611 385.066ZM534.745 376.033L534.613 375.041L531.033 375.515L534.347 376.95L534.745 376.033ZM580.453 369.98L581.448 370.078L581.57 368.824L580.321 368.989L580.453 369.98ZM568.97 484.637L587.037 491.864L587.78 490.007L569.713 482.78L568.97 484.637ZM587.311 489.94L542.055 494.366L542.249 496.357L587.506 491.93L587.311 489.94ZM542.769 496.149L559.028 483.412L557.795 481.837L541.535 494.574L542.769 496.149ZM559.411 482.596L556.611 385.037L554.612 385.095L557.412 482.653L559.411 482.596ZM556.009 384.148L535.142 375.115L534.347 376.95L555.214 385.984L556.009 384.148ZM534.876 377.024L580.584 370.972L580.321 368.989L534.613 375.041L534.876 377.024ZM579.457 369.883L568.347 483.611L570.337 483.806L581.448 370.078L579.457 369.883ZM613.424 483.708L612.429 483.611L612.356 484.358L613.052 484.637L613.424 483.708ZM631.49 490.935L631.588 491.93L631.862 490.007L631.49 490.935ZM586.234 495.361L585.617 494.574L582.915 496.691L586.331 496.357L586.234 495.361ZM602.494 482.625L603.11 483.412L603.508 483.1L603.493 482.596L602.494 482.625ZM599.693 385.066L600.693 385.037L600.675 384.401L600.091 384.148L599.693 385.066ZM578.827 376.033L578.695 375.041L575.115 375.515L578.429 376.95L578.827 376.033ZM624.535 369.98L625.53 370.078L625.652 368.824L624.403 368.989L624.535 369.98ZM613.052 484.637L631.119 491.864L631.862 490.007L613.795 482.78L613.052 484.637ZM631.393 489.94L586.137 494.366L586.331 496.357L631.588 491.93L631.393 489.94ZM586.851 496.149L603.11 483.412L601.877 481.837L585.617 494.574L586.851 496.149ZM603.493 482.596L600.693 385.037L598.694 385.095L601.494 482.653L603.493 482.596ZM600.091 384.148L579.224 375.115L578.429 376.95L599.296 385.984L600.091 384.148ZM578.958 377.024L624.666 370.972L624.403 368.989L578.695 375.041L578.958 377.024ZM623.539 369.883L612.429 483.611L614.419 483.806L625.53 370.078L623.539 369.883ZM678.824 403.674L678.648 404.659L678.66 404.661L678.672 404.663L678.824 403.674ZM685.689 405.391L685.358 406.334L685.373 406.339L685.388 406.344L685.689 405.391ZM692.103 408.101L691.624 408.978L691.64 408.987L691.656 408.995L692.103 408.101ZM697.613 411.533L696.999 412.323L697.772 412.924L698.39 412.164L697.613 411.533ZM712.428 393.286L713.417 393.433L713.952 389.822L711.651 392.656L712.428 393.286ZM705.743 438.362L704.769 438.587L706.732 438.509L705.743 438.362ZM701.949 429.148L701.087 429.655L701.092 429.662L701.949 429.148ZM695.174 420.928L694.502 421.668L694.51 421.675L695.174 420.928ZM685.96 415.146L685.565 416.065L685.571 416.068L685.578 416.071L685.96 415.146ZM667.894 413.701L668.117 414.676L668.13 414.673L668.143 414.67L667.894 413.701ZM662.293 416.14L661.718 415.322L661.711 415.327L661.703 415.333L662.293 416.14ZM658.5 420.476L657.624 419.993L657.617 420.005L657.611 420.017L658.5 420.476ZM659.493 433.755L658.737 434.41L658.744 434.417L658.75 434.424L659.493 433.755ZM665.816 438.362L665.378 439.26L665.386 439.265L665.395 439.269L665.816 438.362ZM674.669 441.523L674.406 442.488L674.414 442.49L674.422 442.493L674.669 441.523ZM695.084 447.666L694.713 448.594L694.72 448.597L694.727 448.6L695.084 447.666ZM710.169 460.312L709.279 460.767L709.284 460.777L709.29 460.788L710.169 460.312ZM709.627 484.341L708.755 483.853L708.752 483.858L709.627 484.341ZM702.13 493.013L702.717 493.822L702.727 493.815L702.13 493.013ZM691.922 497.891L691.658 496.926L691.922 497.891ZM672.32 498.523L672.116 499.502L672.32 498.523ZM656.151 492.109L655.621 492.957L655.63 492.963L656.151 492.109ZM649.557 487.231L650.217 486.48L649.404 485.766L648.756 486.632L649.557 487.231ZM635.826 505.569L634.831 505.475L634.495 509.015L636.627 506.168L635.826 505.569ZM640.072 460.764L640.977 460.338L639.421 457.033L639.076 460.67L640.072 460.764ZM656.061 481.541L655.436 482.321L655.445 482.328L656.061 481.541ZM666.72 487.683L666.351 488.613L666.364 488.618L666.72 487.683ZM689.935 486.87L690.51 487.689L690.513 487.686L689.935 486.87ZM691.832 472.236L691.112 472.93L691.125 472.944L691.138 472.957L691.832 472.236ZM685.509 467.991L685.087 468.897L685.095 468.901L685.509 467.991ZM666.449 461.577L666.137 462.527L666.449 461.577ZM656.241 457.603L655.814 458.507L655.821 458.51L655.827 458.513L656.241 457.603ZM647.298 451.821L646.627 452.562L646.636 452.57L646.645 452.578L647.298 451.821ZM640.975 443.33L640.068 443.751L640.073 443.761L640.077 443.771L640.975 443.33ZM645.13 412.888L644.403 412.202L644.402 412.203L645.13 412.888ZM651.725 407.83L652.189 408.715L652.197 408.711L651.725 407.83ZM659.132 404.849L659.391 405.814L659.402 405.812L659.413 405.808L659.132 404.849ZM671.869 404.042C674.095 404.042 676.355 404.247 678.648 404.659L679.001 402.69C676.596 402.258 674.219 402.042 671.869 402.042V404.042ZM678.672 404.663C680.96 405.015 683.188 405.572 685.358 406.334L686.021 404.447C683.734 403.644 681.386 403.057 678.976 402.686L678.672 404.663ZM685.388 406.344C687.619 407.049 689.697 407.927 691.624 408.978L692.582 407.223C690.535 406.106 688.337 405.178 685.991 404.437L685.388 406.344ZM691.656 408.995C693.651 409.993 695.431 411.103 696.999 412.323L698.227 410.744C696.544 409.435 694.65 408.256 692.55 407.206L691.656 408.995ZM698.39 412.164L713.204 393.916L711.651 392.656L696.837 410.903L698.39 412.164ZM711.439 393.139L704.754 438.215L706.732 438.509L713.417 393.433L711.439 393.139ZM706.718 438.137C705.969 434.894 704.662 431.726 702.807 428.633L701.092 429.662C702.849 432.592 704.072 435.566 704.769 438.587L706.718 438.137ZM702.811 428.641C700.951 425.478 698.625 422.657 695.839 420.18L694.51 421.675C697.143 424.016 699.334 426.675 701.087 429.655L702.811 428.641ZM695.847 420.188C693.107 417.697 689.936 415.709 686.343 414.222L685.578 416.071C688.97 417.474 691.942 419.341 694.502 421.668L695.847 420.188ZM686.356 414.228C682.727 412.664 678.767 411.888 674.488 411.888V413.888C678.52 413.888 682.208 414.618 685.565 416.065L686.356 414.228ZM674.488 411.888C672.12 411.888 669.838 412.169 667.645 412.733L668.143 414.67C670.165 414.15 672.28 413.888 674.488 413.888V411.888ZM667.671 412.726C665.448 413.234 663.459 414.097 661.718 415.322L662.869 416.958C664.38 415.895 666.125 415.131 668.117 414.676L667.671 412.726ZM661.703 415.333C660.017 416.565 658.656 418.123 657.624 419.993L659.375 420.959C660.27 419.337 661.439 418.003 662.883 416.948L661.703 415.333ZM657.611 420.017C656.62 421.934 656.145 424.176 656.145 426.709H658.145C658.145 424.425 658.573 422.511 659.388 420.935L657.611 420.017ZM656.145 426.709C656.145 429.788 656.983 432.385 658.737 434.41L660.249 433.1C658.872 431.511 658.145 429.412 658.145 426.709H656.145ZM658.75 434.424C660.476 436.342 662.694 437.95 665.378 439.26L666.255 437.463C663.76 436.245 661.762 434.781 660.236 433.086L658.75 434.424ZM665.395 439.269C668.044 440.501 671.05 441.573 674.406 442.488L674.932 440.559C671.664 439.667 668.768 438.632 666.238 437.455L665.395 439.269ZM674.422 442.493C677.728 443.334 681.124 444.236 684.611 445.197L685.142 443.269C681.644 442.304 678.235 441.399 674.916 440.554L674.422 442.493ZM684.611 445.197C688.068 446.151 691.435 447.284 694.713 448.594L695.455 446.738C692.108 445.399 688.67 444.243 685.142 443.269L684.611 445.197ZM694.727 448.6C697.952 449.831 700.812 451.439 703.316 453.419L704.557 451.85C701.882 449.735 698.841 448.03 695.441 446.732L694.727 448.6ZM703.316 453.419C705.788 455.373 707.775 457.818 709.279 460.767L711.06 459.858C709.432 456.665 707.264 453.991 704.557 451.85L703.316 453.419ZM709.29 460.788C710.816 463.615 711.608 467.175 711.608 471.514H713.608C713.608 466.94 712.774 463.032 711.049 459.837L709.29 460.788ZM711.608 471.514C711.608 476.38 710.642 480.479 708.755 483.853L710.5 484.829C712.588 481.096 713.608 476.644 713.608 471.514H711.608ZM708.752 483.858C706.891 487.231 704.485 490.011 701.532 492.211L702.727 493.815C705.918 491.437 708.51 488.436 710.503 484.824L708.752 483.858ZM701.543 492.203C698.571 494.359 695.278 495.934 691.658 496.926L692.187 498.855C696.034 497.8 699.546 496.122 702.717 493.822L701.543 492.203ZM691.658 496.926C688.003 497.928 684.448 498.426 680.992 498.426V500.426C684.642 500.426 688.375 499.9 692.187 498.855L691.658 496.926ZM680.992 498.426C678.172 498.426 675.349 498.133 672.524 497.544L672.116 499.502C675.073 500.118 678.032 500.426 680.992 500.426V498.426ZM672.524 497.544C669.69 496.954 666.946 496.127 664.291 495.065L663.548 496.922C666.313 498.028 669.169 498.888 672.116 499.502L672.524 497.544ZM664.291 495.065C661.632 494.002 659.093 492.732 656.671 491.256L655.63 492.963C658.147 494.498 660.787 495.818 663.548 496.922L664.291 495.065ZM656.681 491.261C654.315 489.782 652.161 488.188 650.217 486.48L648.897 487.983C650.927 489.767 653.169 491.425 655.621 492.957L656.681 491.261ZM648.756 486.632L635.026 504.969L636.627 506.168L650.357 487.831L648.756 486.632ZM636.822 505.663L641.067 460.858L639.076 460.67L634.831 505.475L636.822 505.663ZM639.167 461.19C641.124 465.348 643.479 469.233 646.232 472.843L647.822 471.63C645.156 468.134 642.874 464.37 640.977 460.338L639.167 461.19ZM646.232 472.843C648.989 476.457 652.057 479.618 655.436 482.321L656.685 480.76C653.44 478.164 650.486 475.122 647.822 471.63L646.232 472.843ZM655.445 482.328C658.83 484.975 662.466 487.071 666.351 488.613L667.089 486.754C663.386 485.284 659.916 483.285 656.676 480.753L655.445 482.328ZM666.364 488.618C670.272 490.107 674.338 490.851 678.553 490.851V488.851C674.579 488.851 670.755 488.15 667.076 486.749L666.364 488.618ZM678.553 490.851C683.441 490.851 687.458 489.831 690.51 487.689L689.36 486.052C686.751 487.884 683.18 488.851 678.553 488.851V490.851ZM690.513 487.686C693.685 485.439 695.271 482.236 695.271 478.198H693.271C693.271 481.628 691.967 484.206 689.357 486.054L690.513 487.686ZM695.271 478.198C695.271 475.538 694.362 473.284 692.526 471.516L691.138 472.957C692.554 474.32 693.271 476.041 693.271 478.198H695.271ZM692.552 471.543C690.878 469.804 688.656 468.323 685.923 467.08L685.095 468.901C687.662 470.068 689.655 471.417 691.112 472.93L692.552 471.543ZM685.931 467.084C683.287 465.854 680.287 464.753 676.936 463.779L676.377 465.699C679.65 466.651 682.552 467.718 685.087 468.897L685.931 467.084ZM676.936 463.779C673.635 462.818 670.243 461.768 666.76 460.627L666.137 462.527C669.64 463.675 673.053 464.732 676.377 465.699L676.936 463.779ZM666.76 460.627C663.302 459.494 659.933 458.182 656.655 456.692L655.827 458.513C659.173 460.034 662.61 461.372 666.137 462.527L666.76 460.627ZM656.669 456.698C653.434 455.17 650.53 453.291 647.952 451.064L646.645 452.578C649.366 454.928 652.424 456.904 655.814 458.507L656.669 456.698ZM647.97 451.081C645.479 448.821 643.446 446.095 641.873 442.889L640.077 443.771C641.756 447.19 643.938 450.124 646.627 452.562L647.97 451.081ZM641.882 442.909C640.392 439.7 639.626 435.787 639.626 431.135H637.626C637.626 435.999 638.426 440.215 640.068 443.751L641.882 442.909ZM639.626 431.135C639.626 427.135 640.215 423.714 641.362 420.847L639.505 420.105C638.242 423.26 637.626 426.945 637.626 431.135H639.626ZM641.362 420.847C642.527 417.935 644.029 415.517 645.859 413.574L644.402 412.203C642.377 414.354 640.749 416.995 639.505 420.105L641.362 420.847ZM645.858 413.574C647.774 411.542 649.885 409.925 652.189 408.715L651.26 406.944C648.747 408.264 646.461 410.019 644.403 412.202L645.858 413.574ZM652.197 408.711C654.605 407.419 657.003 406.455 659.391 405.814L658.873 403.883C656.323 404.567 653.782 405.591 651.252 406.948L652.197 408.711ZM659.413 405.808C661.833 405.1 664.124 404.631 666.285 404.398L666.07 402.409C663.775 402.657 661.369 403.152 658.851 403.889L659.413 405.808ZM666.285 404.398C668.492 404.159 670.35 404.042 671.869 404.042V402.042C670.255 402.042 668.32 402.166 666.07 402.409L666.285 404.398Z" fill="#6C63FF"/>
    </g>
    <defs>
        <clipPath id="clip0">
            <rect width="1030" height="554" fill="white"/>
        </clipPath>
    </defs>
</svg>
