<svg width="256" height="209" viewBox="0 0 256 209" fill="none" xmlns="http://www.w3.org/2000/svg">
    <path d="M77.7662 163.022C55.2962 162.607 36.2861 147.947 29.4331 127.69C32.4058 128.211 35.4511 128.489 38.5756 128.489C43.411 128.489 48.095 127.841 52.545 126.629L52.512 125.657C28.7708 120.89 10.868 99.9517 10.7828 74.8271C17.7542 78.5564 25.6663 80.7898 34.0604 81.0555L35.8065 81.1107L34.354 80.14C20.3946 70.8108 11.2104 54.8879 11.2104 36.8403C11.2104 27.5638 13.6389 18.8542 17.8943 11.3138C43.8815 42.8791 82.5118 63.626 126.052 65.8106L126.714 65.8439L126.564 65.1979C125.677 61.3916 125.216 57.4209 125.216 53.3423C125.216 24.6138 148.509 1.322 177.239 1.322C192.202 1.322 205.721 7.6396 215.211 17.7505L215.401 17.9524L215.673 17.8989C227.243 15.6204 238.14 11.466 248.032 5.76572C243.993 17.3582 235.947 27.0751 225.577 33.2914L225.893 34.2167C235.974 33.012 245.605 30.4153 254.616 26.5951C247.766 36.4896 239.247 45.1981 229.5 52.2327L229.281 52.3908L229.293 52.6606C229.394 54.905 229.444 57.1627 229.444 59.4326C229.444 128.622 176.783 208.368 80.5109 208.368C51.7206 208.368 24.8716 200.148 2.09057 185.999C5.52501 186.334 9.00713 186.505 12.5289 186.505C37.2511 186.505 60.0055 178.068 78.0654 163.915L79.1724 163.048L77.7662 163.022Z" fill="#55ACEE" stroke="#FFFEFE"/>
</svg>
